<svg viewBox="0 0 391.77 425.12" xmlns="http://www.w3.org/2000/svg"><g fill="#e0e7f0"><g fill-rule="evenodd" opacity=".5"><path d="M328.48 205.22c11.28 17.67 22.94 35.94 21.95 67.36-.47 14.71 4.81 26.55 12.52 35.94A149.23 149.23 0 00308 157.58c2.76 19.89 11.43 33.47 20.48 47.64zM307.58 248.51c-6.21-32.17-12.12-62.73-60-118.57a147.86 147.86 0 00-38.71-2.82c-.29 8.94 2.6 18.35 8.64 28.11 4.5 7.27 10.3 15.53 17 25.1 22 31.35 52.12 74.29 60 119 6.22 35.13 11.63 56 16 72.77 1.55 6 3 11.48 4.24 16.88a149.72 149.72 0 0027.91-32.09c-10.8-21.72-24.37-55.18-33.36-99.51-.59-3-1.16-5.94-1.72-8.87zM156.82 381.27A233.44 233.44 0 01161 414a148.94 148.94 0 0029.73 8.7 280 280 0 00-8.8-71.53c-5.11-20.28-15.3-36.29-27.11-54.82C137.71 269.51 117 237 104.46 178.64a149.84 149.84 0 00-30 55 201.35 201.35 0 0027.38 40.94c32.51 37.98 48.16 73 54.98 106.69z"/><path d="M310.79 247.89c.56 2.92 1.13 5.85 1.73 8.8 8.69 42.84 21.65 75.39 32.19 96.9A149.32 149.32 0 00362 312.45c-9-10.18-15.38-23.32-14.86-40 1-30.41-9.91-47.46-21.43-65.5-9.32-14.59-18.88-29.59-21.29-52a149.5 149.5 0 00-51.56-23.79c45.85 54.35 51.75 84.76 57.93 116.73zM185.09 350.39q1.8 7.16 3.18 14a277.42 277.42 0 015.73 58.88 147.65 147.65 0 0037.76 1.14c.39-3.69.81-7.32 1.22-10.92 4.13-35.86 7.39-64.19-28-110.5-39.11-51.24-54.2-108.69-64.18-146.71-.64-2.45-1.27-4.83-1.88-7.12a148.5 148.5 0 00-31.78 26.44c12.39 59.3 33.23 92 50.41 119 11.98 18.79 22.3 35 27.54 55.79zM99.31 276.74a205.14 205.14 0 01-26.2-38.42 147.7 147.7 0 00-3.73 19.47c3.93 20.29 12.84 42.87 22.23 58.54 3.58 6 7.31 11.49 10.92 16.84 8.42 12.46 16.18 23.95 18.8 36.84a46.37 46.37 0 01-.29 19.76 149.82 149.82 0 0036.56 22.81c-2.81-42.71-16.23-86.81-58.29-135.84z"/><path d="M99.82 335c-3.63-5.38-7.39-10.95-11-17-8-13.4-15.71-31.81-20.34-49.66a149.47 149.47 0 0049.75 119c3.69-19.59-6.3-34.42-18.41-52.34zM282.35 410.24c-10.36-20.12-22.81-47.56-29.09-92.51-4.42-31.63-22.59-55-40.17-77.49-7.37-9.46-15-19.24-21.49-29.49-9.25-14.6-11.26-32.82-13-48.89-1.17-10.68-2.27-20.54-5.2-28.33a148.35 148.35 0 00-31.51 13.87c.68 2.54 1.38 5.22 2.12 8 9.92 37.76 24.91 94.83 63.62 145.55 17.27 22.63 25.53 41 29 58.08 3.78 18.65 1.82 35.67-.38 54.79q-.59 5-1.14 10.17c4-.48 8-1.11 12-1.92a149.69 149.69 0 0035.24-11.83z"/><path d="M291.32 299.86c-7.77-43.92-37.67-86.55-59.5-117.65-6.74-9.61-12.56-17.91-17.12-25.26-6.31-10.21-9.36-20.12-9.13-29.6a153 153 0 00-17.82 2.51c-3.82.78-7.59 1.7-11.28 2.75 3.07 8.27 4.2 18.42 5.35 28.9 1.74 15.71 3.7 33.53 12.54 47.49 6.41 10.12 14 19.83 21.31 29.23 17.84 22.88 36.27 46.55 40.83 79 6.21 44.45 18.53 71.6 28.78 91.5A147.9 147.9 0 00312 391.31c-1.35-5.91-2.89-11.85-4.6-18.43-4.4-16.82-9.84-37.76-16.08-73.02z"/></g><path d="M53.24 363.53l-.91.75a12.46 12.46 0 00-3.93 5.8l-.4 1.12a.55.55 0 01-.95.18l-.75-.9a12.46 12.46 0 00-5.8-3.93l-1.12-.36a.56.56 0 01-.18-1l.9-.75a12.44 12.44 0 003.93-5.79l.36-1.12a.56.56 0 011-.19l.74.91a12.46 12.46 0 005.8 3.93l1.12.36a.55.55 0 01.19.99z" fill-rule="evenodd"/><circle cx="385.4" cy="208.86" r="6.37"/><path d="M308.1 91.72l.76 1.39a16.8 16.8 0 006.66 6.66l1.39.76a.75.75 0 010 1.31l-1.39.76a16.83 16.83 0 00-6.66 6.67l-.76 1.39a.75.75 0 01-1.31 0l-.76-1.39a16.85 16.85 0 00-6.67-6.67l-1.39-.76a.75.75 0 010-1.31l1.39-.76a16.83 16.83 0 006.64-6.66l.76-1.39a.75.75 0 011.34 0z" fill-rule="evenodd"/><circle cx="104.7" cy="106.96" r="2.45"/></g><circle cx="6.38" cy="187.91" fill="#e1e8f1" r="6.38"/><path d="M84.37 163.22l-1.58-.1a16.85 16.85 0 00-9.22 2l-1.38.76a.75.75 0 01-1.11-.7l.1-1.58a16.83 16.83 0 00-2.05-9.22l-.76-1.38a.74.74 0 01.7-1.1l1.58.1a16.81 16.81 0 009.22-2l1.39-.77a.75.75 0 011.1.71l-.1 1.58a16.83 16.83 0 002 9.22l.77 1.39a.75.75 0 01-.66 1.09zM178.94 71.66l-1.58-.11a16.8 16.8 0 00-9.21 2l-1.39.77a.75.75 0 01-1.11-.71l.1-1.58a16.71 16.71 0 00-2.05-9.21l-.76-1.39a.75.75 0 01.7-1.11l1.58.11a16.74 16.74 0 009.22-2.06l1.39-.76a.75.75 0 011.11.7l-.11 1.69a16.8 16.8 0 002 9.21l.77 1.39a.75.75 0 01-.66 1.06z" fill="#e1e8f1" fill-rule="evenodd"/><g fill="#c6dcf2"><path d="M182.69 2a1.46 1.46 0 012.28.9 13.14 13.14 0 01.18 3.1 14.34 14.34 0 01-1 4.37 14.31 14.31 0 01-2.26 3.87 12.52 12.52 0 01-2.26 2.14 1.46 1.46 0 01-2.28-.89 12.81 12.81 0 01-.18-3.11 14.06 14.06 0 011-4.37 14.41 14.41 0 012.26-3.86A13.17 13.17 0 01182.69 2z"/><path d="M180.53 6.54a.92.92 0 01.27 1.51 8.41 8.41 0 01-1.58 1.11 9.1 9.1 0 01-2.64.91 9 9 0 01-2.79.07 8.46 8.46 0 01-1.88-.5.91.91 0 01-.27-1.5A8.09 8.09 0 01173.23 7a8.9 8.9 0 012.64-.91 9.28 9.28 0 012.79-.06 9.08 9.08 0 011.87.51z" opacity=".64"/><path d="M173.76 0a.91.91 0 00-1.13 1 7.33 7.33 0 00.57 1.84 8.93 8.93 0 001.53 2.34A9 9 0 00176.9 7a8.22 8.22 0 001.78.76.92.92 0 001.14-1 7.86 7.86 0 00-.58-1.85 8.93 8.93 0 00-1.53-2.34 9.06 9.06 0 00-2.17-1.78 8.44 8.44 0 00-1.78-.79z" opacity=".64"/><path d="M142.18 117.37a5.57 5.57 0 01-1.31-2.58 6.23 6.23 0 011.38-5.21 8.85 8.85 0 016.64-3.25 12.05 12.05 0 014.2.74c-.08-.33-.16-.66-.26-1a33.35 33.35 0 00-4-7.67c-.54-.87-1.1-1.76-1.63-2.65a52.45 52.45 0 0122.83-74 1.3 1.3 0 111.11 2.36 49.84 49.84 0 00-21.68 70.32c.51.86 1.06 1.74 1.59 2.59a35.75 35.75 0 014.24 8.28 14.78 14.78 0 01.63 3.08 37.86 37.86 0 013.68 2.44 138 138 0 0146.53 60 1.31 1.31 0 01-2.43 1A135.4 135.4 0 00158.09 113c-.7-.51-1.42-1-2.17-1.51 0 .18 0 .35-.07.52a9.86 9.86 0 01-3.12 5.92 8 8 0 01-7.64 1.35 6.71 6.71 0 01-2.91-1.91zm11.21-7.37a10.4 10.4 0 00-4.47-1.09 6.27 6.27 0 00-4.63 2.28 3.64 3.64 0 00-.86 3 3.54 3.54 0 002.49 2.5 5.34 5.34 0 005.08-.84 7.82 7.82 0 002.39-5.85z"/></g><path d="M210.69 232.52h156.07v156.07H210.69z" fill="#ff4e5a"/><path d="M132.65 206.51L206.26 231c-10.63 46.75-23 93.14-39.2 139.53a21.26 21.26 0 01-1.06 3.12l-33.35-11.12z" fill="#1b1b1b"/><path d="M206.26 231l4.43 1.48v156.11L166 373.69a21.26 21.26 0 001.06-3.12c16.24-46.39 28.57-92.78 39.2-139.57z" fill="#a32c32"/><path d="M132.65 206.51h156.07l.51.16v25.85h-78.54z" fill="#a32c32"/><path d="M366.75 232.52h-77.52v-25.85z" fill="#1b1b1b"/><path d="M105.27 162.23l98.78 42.85L115.33 362l-96.36-61.83z" fill="#ff4e5a"/><path d="M122.26 375.74l88.1-152.24-6.31-18.42-88.68 154.93z" fill="#a32c32"/><path d="M18.97 300.17l96.4 59.84 6.89 15.73-100.93-61.97z" fill="#1b1b1b"/><path d="M318.42 282.87l-62.88 6.95L259 328l41.12-4.49 21.76-2.4zm-28.77 26.73l-32.58-19.54 60.23-6.53z" fill="#fff" fill-rule="evenodd"/><path d="M312.41 283.6l-23.16 21.84-27.29-16.37z" fill="#fff" fill-rule="evenodd"/><g fill="#c6dcf2"><path d="M268.45 230.59a1 1 0 01-.76.2 1 1 0 01-.84-1.13 37.79 37.79 0 017.15-16.78 61.72 61.72 0 0113.15-13A178.54 178.54 0 01304.49 189c4.5-2.58 9.14-5.26 13.49-8.2a110.42 110.42 0 0026.82-25.56 50.23 50.23 0 004.25-6.59 18.09 18.09 0 01-4.15.29 14.25 14.25 0 01-10.5-4.84c-2.71-3.23-3.3-8.14-1.51-12.52 1.54-3.77 4.57-6.21 8.09-6.54a10.39 10.39 0 017.94 2.81 15 15 0 014.89 10.58 20.3 20.3 0 01-1.17 7 15.74 15.74 0 002.46-1.43c5.77-4.13 11.74-14.28 12.78-21.71a68.48 68.48 0 00.26-17.82A62.7 62.7 0 00364 88.64c-3.59-9-9.19-17.88-18.72-29.74a1 1 0 011.56-1.25c9.66 12 15.35 21.06 19 30.25a64.72 64.72 0 014.22 16.31 69.77 69.77 0 01-.27 18.33 36.79 36.79 0 01-4.79 12.71 33.83 33.83 0 01-8.78 10.35 17.62 17.62 0 01-4.64 2.35 47.62 47.62 0 01-5.22 8.46 112.88 112.88 0 01-27.3 26c-4.41 3-9.09 5.67-13.61 8.27a176 176 0 00-17.12 10.78c-14.27 10.62-18.51 21.34-19.55 28.46a1 1 0 01-.33.67zm69.1-102.14a9.16 9.16 0 00-2.81 3.86c-1.5 3.64-1 7.85 1.19 10.47a12.32 12.32 0 009.06 4.14 16.36 16.36 0 005.16-.6 18.17 18.17 0 001.66-7.88 13 13 0 00-4.21-9.13 8.47 8.47 0 00-6.43-2.32 6.91 6.91 0 00-3.62 1.46zM336.59 41.6a.93.93 0 011.4-.69 8.32 8.32 0 011.54 1.23 9.12 9.12 0 011.65 2.34 8.83 8.83 0 01.82 2.72 7.71 7.71 0 010 2 .93.93 0 01-1.4.69 8.11 8.11 0 01-1.55-1.24 9.12 9.12 0 01-1.65-2.34 9.49 9.49 0 01-.85-2.72 8.64 8.64 0 01.04-1.99z"/><path d="M337.52 44.4a.7.7 0 011 .62 6.21 6.21 0 01-.18 1.46 6.79 6.79 0 01-.83 2A7 7 0 01336.1 50a6.61 6.61 0 01-1.24.8.69.69 0 01-1-.61 5.75 5.75 0 01.18-1.47 6.79 6.79 0 01.83-1.95 7.06 7.06 0 011.4-1.6 5.83 5.83 0 011.25-.77zM339.22 43.48a.7.7 0 000 1.16 6.18 6.18 0 001.34.62 6.86 6.86 0 002.09.33 7 7 0 002.1-.32 5.79 5.79 0 001.34-.63.69.69 0 000-1.16 6.18 6.18 0 00-1.34-.62 6.82 6.82 0 00-4.19 0 6.18 6.18 0 00-1.34.62z" opacity=".64"/></g></svg>