<svg version="1.2" xmlns="http://www.w3.org/2000/svg" viewBox="0 0 227 204" width="227" height="204">
	<title>sloth (1)-svg</title>
	<defs>
		<linearGradient id="g1" x1="-340" y1="-321.7" x2="507.1" y2="525.4" gradientUnits="userSpaceOnUse">
			<stop offset="0" stop-color="#ccfbff"/>
			<stop offset="1" stop-color="#c9e4ff"/>
		</linearGradient>
		<linearGradient id="g2" x1="-340" y1="-321.7" x2="507.1" y2="525.4" gradientUnits="userSpaceOnUse">
			<stop offset="0" stop-color="#ccfbff"/>
			<stop offset="1" stop-color="#c9e4ff"/>
		</linearGradient>
		<linearGradient id="g3" x1="-340" y1="-321.7" x2="507.1" y2="525.4" gradientUnits="userSpaceOnUse">
			<stop offset="0" stop-color="#ccfbff"/>
			<stop offset="1" stop-color="#c9e4ff"/>
		</linearGradient>
		<linearGradient id="g4" x1="-340" y1="-321.7" x2="507.1" y2="525.4" gradientUnits="userSpaceOnUse">
			<stop offset="0" stop-color="#ccfbff"/>
			<stop offset="1" stop-color="#c9e4ff"/>
		</linearGradient>
		<linearGradient id="g5" x1="-340" y1="-321.7" x2="507.1" y2="525.4" gradientUnits="userSpaceOnUse">
			<stop offset="0" stop-color="#ccfbff"/>
			<stop offset="1" stop-color="#c9e4ff"/>
		</linearGradient>
		<linearGradient id="g6" x1="-340" y1="-321.7" x2="507.1" y2="525.4" gradientUnits="userSpaceOnUse">
			<stop offset="0" stop-color="#ccfbff"/>
			<stop offset="1" stop-color="#c9e4ff"/>
		</linearGradient>
		<linearGradient id="g7" x1="-340" y1="-321.7" x2="507.1" y2="525.4" gradientUnits="userSpaceOnUse">
			<stop offset="0" stop-color="#ccfbff"/>
			<stop offset="1" stop-color="#c9e4ff"/>
		</linearGradient>
		<linearGradient id="g8" x1="-340" y1="-321.7" x2="507.1" y2="525.4" gradientUnits="userSpaceOnUse">
			<stop offset="0" stop-color="#ccfbff"/>
			<stop offset="1" stop-color="#c9e4ff"/>
		</linearGradient>
		<linearGradient id="g9" x1="-340" y1="-321.7" x2="507.1" y2="525.4" gradientUnits="userSpaceOnUse">
			<stop offset="0" stop-color="#ccfbff"/>
			<stop offset="1" stop-color="#c9e4ff"/>
		</linearGradient>
		<linearGradient id="g10" x1="-340" y1="-321.7" x2="507.1" y2="525.4" gradientUnits="userSpaceOnUse">
			<stop offset="0" stop-color="#ccfbff"/>
			<stop offset="1" stop-color="#c9e4ff"/>
		</linearGradient>
		<linearGradient id="g11" x1="-340" y1="-321.7" x2="507.1" y2="525.4" gradientUnits="userSpaceOnUse">
			<stop offset="0" stop-color="#ccfbff"/>
			<stop offset="1" stop-color="#c9e4ff"/>
		</linearGradient>
		<linearGradient id="g12" x1="-340" y1="-321.7" x2="507.1" y2="525.4" gradientUnits="userSpaceOnUse">
			<stop offset="0" stop-color="#ccfbff"/>
			<stop offset="1" stop-color="#c9e4ff"/>
		</linearGradient>
		<linearGradient id="g13" x1="-340" y1="-321.7" x2="507.1" y2="525.4" gradientUnits="userSpaceOnUse">
			<stop offset="0" stop-color="#ccfbff"/>
			<stop offset="1" stop-color="#c9e4ff"/>
		</linearGradient>
		<linearGradient id="g14" x1="-58.7" y1="-25.2" x2="239.8" y2="273.3" gradientUnits="userSpaceOnUse">
			<stop offset="0" stop-color="#00c8d7"/>
			<stop offset="1" stop-color="#0a84ff"/>
		</linearGradient>
		<linearGradient id="g15" x1="-58.7" y1="-25.2" x2="239.8" y2="273.3" gradientUnits="userSpaceOnUse">
			<stop offset="0" stop-color="#00c8d7"/>
			<stop offset="1" stop-color="#0a84ff"/>
		</linearGradient>
		<linearGradient id="g16" x1="-58.7" y1="-25.2" x2="239.8" y2="273.3" gradientUnits="userSpaceOnUse">
			<stop offset="0" stop-color="#00c8d7"/>
			<stop offset="1" stop-color="#0a84ff"/>
		</linearGradient>
		<linearGradient id="g17" x1="-58.7" y1="-25.2" x2="239.8" y2="273.3" gradientUnits="userSpaceOnUse">
			<stop offset="0" stop-color="#00c8d7"/>
			<stop offset="1" stop-color="#0a84ff"/>
		</linearGradient>
		<linearGradient id="g18" x1="-58.7" y1="-25.2" x2="239.8" y2="273.3" gradientUnits="userSpaceOnUse">
			<stop offset="0" stop-color="#00c8d7"/>
			<stop offset="1" stop-color="#0a84ff"/>
		</linearGradient>
		<linearGradient id="g19" x1="-58.7" y1="-25.2" x2="239.8" y2="273.3" gradientUnits="userSpaceOnUse">
			<stop offset="0" stop-color="#00c8d7"/>
			<stop offset="1" stop-color="#0a84ff"/>
		</linearGradient>
		<linearGradient id="g20" x1="-58.7" y1="-25.2" x2="239.8" y2="273.3" gradientUnits="userSpaceOnUse">
			<stop offset="0" stop-color="#00c8d7"/>
			<stop offset="1" stop-color="#0a84ff"/>
		</linearGradient>
		<linearGradient id="g21" x1="-58.7" y1="-25.2" x2="239.8" y2="273.3" gradientUnits="userSpaceOnUse">
			<stop offset="0" stop-color="#00c8d7"/>
			<stop offset="1" stop-color="#0a84ff"/>
		</linearGradient>
		<linearGradient id="g22" x1="-58.7" y1="-25.2" x2="239.8" y2="273.3" gradientUnits="userSpaceOnUse">
			<stop offset="0" stop-color="#00c8d7"/>
			<stop offset="1" stop-color="#0a84ff"/>
		</linearGradient>
		<linearGradient id="g23" x1="-58.7" y1="-25.2" x2="239.8" y2="273.3" gradientUnits="userSpaceOnUse">
			<stop offset="0" stop-color="#00c8d7"/>
			<stop offset="1" stop-color="#0a84ff"/>
		</linearGradient>
		<linearGradient id="g24" x1="-58.7" y1="-25.2" x2="239.8" y2="273.3" gradientUnits="userSpaceOnUse">
			<stop offset="0" stop-color="#00c8d7"/>
			<stop offset="1" stop-color="#0a84ff"/>
		</linearGradient>
		<linearGradient id="g25" x1="-58.7" y1="-25.2" x2="239.8" y2="273.3" gradientUnits="userSpaceOnUse">
			<stop offset="0" stop-color="#00c8d7"/>
			<stop offset="1" stop-color="#0a84ff"/>
		</linearGradient>
		<linearGradient id="g26" x1="-58.7" y1="-25.2" x2="239.8" y2="273.3" gradientUnits="userSpaceOnUse">
			<stop offset="0" stop-color="#00c8d7"/>
			<stop offset="1" stop-color="#0a84ff"/>
		</linearGradient>
		<linearGradient id="g27" x1="-58.7" y1="-25.2" x2="239.8" y2="273.3" gradientUnits="userSpaceOnUse">
			<stop offset="0" stop-color="#00c8d7"/>
			<stop offset="1" stop-color="#0a84ff"/>
		</linearGradient>
		<linearGradient id="g28" x1="-58.7" y1="-25.2" x2="239.8" y2="273.3" gradientUnits="userSpaceOnUse">
			<stop offset="0" stop-color="#00c8d7"/>
			<stop offset="1" stop-color="#0a84ff"/>
		</linearGradient>
		<linearGradient id="g29" x1="-58.7" y1="-25.2" x2="239.8" y2="273.3" gradientUnits="userSpaceOnUse">
			<stop offset="0" stop-color="#00c8d7"/>
			<stop offset="1" stop-color="#0a84ff"/>
		</linearGradient>
		<linearGradient id="g30" x1="-58.7" y1="-25.2" x2="239.8" y2="273.3" gradientUnits="userSpaceOnUse">
			<stop offset="0" stop-color="#00c8d7"/>
			<stop offset="1" stop-color="#0a84ff"/>
		</linearGradient>
		<linearGradient id="g31" x1="-58.7" y1="-25.2" x2="239.8" y2="273.3" gradientUnits="userSpaceOnUse">
			<stop offset="0" stop-color="#00c8d7"/>
			<stop offset="1" stop-color="#0a84ff"/>
		</linearGradient>
		<linearGradient id="g32" x1="-58.7" y1="-25.2" x2="239.8" y2="273.3" gradientUnits="userSpaceOnUse">
			<stop offset="0" stop-color="#00c8d7"/>
			<stop offset="1" stop-color="#0a84ff"/>
		</linearGradient>
		<linearGradient id="g33" x1="-58.7" y1="-25.2" x2="239.8" y2="273.3" gradientUnits="userSpaceOnUse">
			<stop offset="0" stop-color="#00c8d7"/>
			<stop offset="1" stop-color="#0a84ff"/>
		</linearGradient>
		<linearGradient id="g34" x1="-58.7" y1="-25.2" x2="239.8" y2="273.3" gradientUnits="userSpaceOnUse">
			<stop offset="0" stop-color="#00c8d7"/>
			<stop offset="1" stop-color="#0a84ff"/>
		</linearGradient>
		<linearGradient id="g35" x1="-58.7" y1="-25.2" x2="239.8" y2="273.3" gradientUnits="userSpaceOnUse">
			<stop offset="0" stop-color="#00c8d7"/>
			<stop offset="1" stop-color="#0a84ff"/>
		</linearGradient>
		<linearGradient id="g36" x1="-58.7" y1="-25.2" x2="239.8" y2="273.3" gradientUnits="userSpaceOnUse">
			<stop offset="0" stop-color="#00c8d7"/>
			<stop offset="1" stop-color="#0a84ff"/>
		</linearGradient>
		<linearGradient id="g37" x1="-58.7" y1="-25.2" x2="239.8" y2="273.3" gradientUnits="userSpaceOnUse">
			<stop offset="0" stop-color="#00c8d7"/>
			<stop offset="1" stop-color="#0a84ff"/>
		</linearGradient>
		<linearGradient id="g38" x1="-58.7" y1="-25.2" x2="239.8" y2="273.3" gradientUnits="userSpaceOnUse">
			<stop offset="0" stop-color="#00c8d7"/>
			<stop offset="1" stop-color="#0a84ff"/>
		</linearGradient>
		<linearGradient id="g39" x1="-58.7" y1="-25.2" x2="239.8" y2="273.3" gradientUnits="userSpaceOnUse">
			<stop offset="0" stop-color="#00c8d7"/>
			<stop offset="1" stop-color="#0a84ff"/>
		</linearGradient>
		<linearGradient id="g40" x1="-58.7" y1="-25.2" x2="239.8" y2="273.3" gradientUnits="userSpaceOnUse">
			<stop offset="0" stop-color="#00c8d7"/>
			<stop offset="1" stop-color="#0a84ff"/>
		</linearGradient>
		<linearGradient id="g41" x1="-58.7" y1="-25.2" x2="239.8" y2="273.3" gradientUnits="userSpaceOnUse">
			<stop offset="0" stop-color="#e08d07"/>
			<stop offset="1" stop-color="#e08d07"/>
		</linearGradient>
		<linearGradient id="g42" x1="-58.7" y1="-25.2" x2="239.8" y2="273.3" gradientUnits="userSpaceOnUse">
			<stop offset="0" stop-color="#e08d07"/>
			<stop offset="1" stop-color="#e08d07"/>
		</linearGradient>
		<linearGradient id="g43" x1="-58.7" y1="-25.2" x2="239.8" y2="273.3" gradientUnits="userSpaceOnUse">
			<stop offset="0" stop-color="#e08d07"/>
			<stop offset="1" stop-color="#e08d07"/>
		</linearGradient>
		<linearGradient id="g44" x1="-58.7" y1="-25.2" x2="239.8" y2="273.3" gradientUnits="userSpaceOnUse">
			<stop offset="0" stop-color="#e08d07"/>
			<stop offset="1" stop-color="#e08d07"/>
		</linearGradient>
		<linearGradient id="g45" x1="-58.7" y1="-25.2" x2="239.8" y2="273.3" gradientUnits="userSpaceOnUse">
			<stop offset="0" stop-color="#e08d07"/>
			<stop offset="1" stop-color="#e08d07"/>
		</linearGradient>
	</defs>
	<style>
		.s0 { opacity: .7;fill: #ffffff } 
		.s1 { opacity: .6;fill: #ffffff } 
		.s2 { fill: #eaeaee } 
		.s3 { opacity: .4;fill: #eaeaee } 
		.s4 { opacity: .6;fill: #dedede } 
		.s5 { fill: none;stroke: #eaeaee;stroke-linecap: round;stroke-linejoin: round;stroke-opacity: .4;stroke-dasharray: 12 } 
		.s6 { fill: none;stroke: #eaeaee;stroke-linecap: round;stroke-linejoin: round;stroke-opacity: .7;stroke-dasharray: 12 } 
		.s7 { opacity: .5;fill: #fefeff } 
		.s8 { opacity: .8;fill: #ffffff } 
		.s9 { fill: url(#g1) } 
		.s10 { fill: url(#g2) } 
		.s11 { fill: url(#g3) } 
		.s12 { fill: url(#g4) } 
		.s13 { fill: url(#g5) } 
		.s14 { fill: url(#g6) } 
		.s15 { fill: url(#g7) } 
		.s16 { fill: url(#g8) } 
		.s17 { fill: url(#g9) } 
		.s18 { fill: url(#g10) } 
		.s19 { fill: url(#g11) } 
		.s20 { fill: url(#g12) } 
		.s21 { fill: url(#g13) } 
		.s22 { fill: #f9f9fa } 
		.s23 { fill: url(#g14) } 
		.s24 { fill: url(#g15) } 
		.s25 { fill: url(#g16) } 
		.s26 { fill: url(#g17) } 
		.s27 { fill: url(#g18) } 
		.s28 { fill: url(#g19) } 
		.s29 { fill: url(#g20) } 
		.s30 { fill: url(#g21) } 
		.s31 { fill: url(#g22) } 
		.s32 { fill: url(#g23) } 
		.s33 { fill: url(#g24) } 
		.s34 { fill: url(#g25) } 
		.s35 { fill: url(#g26) } 
		.s36 { fill: url(#g27) } 
		.s37 { fill: url(#g28) } 
		.s38 { fill: url(#g29) } 
		.s39 { fill: url(#g30) } 
		.s40 { fill: url(#g31) } 
		.s41 { fill: url(#g32) } 
		.s42 { fill: url(#g33) } 
		.s43 { fill: url(#g34) } 
		.s44 { fill: url(#g35) } 
		.s45 { fill: url(#g36) } 
		.s46 { fill: url(#g37) } 
		.s47 { fill: url(#g38) } 
		.s48 { fill: url(#g39) } 
		.s49 { fill: url(#g40) } 
		.s50 { fill: url(#g41) } 
		.s51 { fill: url(#g42) } 
		.s52 { fill: url(#g43) } 
		.s53 { fill: url(#g44) } 
		.s54 { fill: url(#g45) } 
	</style>
	<path id="Layer" class="s0" d="m226 51.6q0.3 0.3 0.3 0.7 0 0.4-0.3 0.7-0.3 0.3-0.7 0.3h-100.7q-0.4 0-0.7-0.3-0.3-0.3-0.3-0.7 0-0.4 0.3-0.7 0.3-0.3 0.7-0.3h5.9l-5.9-0.1h24.4c0 0-7.6-17.1 8.6-19.3 14.5-2 20.2 12.9 20.2 12.9 0 0 1.8-8.6 10.4-6.9 6.5 1.2 11.8 9.6 13.8 13.4h23.3q0.4 0 0.7 0.3z"/>
	<path id="Layer" class="s1" d="m72.6 22.7q0.3 0.3 0.3 0.8 0 0.4-0.3 0.7-0.2 0.2-0.7 0.3h-56q-0.4-0.1-0.7-0.3-0.3-0.3-0.3-0.7 0-0.5 0.3-0.8 0.3-0.2 0.7-0.2h6.9l-7.1-0.2h13.6c0 0-4.3-9.5 4.7-10.7 8.1-1.1 11.3 7.2 11.3 7.2 0 0 0.9-4.8 5.7-3.9 3.7 0.7 6.7 5.5 7.8 7.6h13.1q0.5 0 0.7 0.2z"/>
	<g id="Layer">
		<g id="Layer" style="opacity: .4">
			<path id="Layer" class="s2" d="m196 120.6h-69.7q-0.4 0-0.7-0.3-0.3-0.3-0.3-0.7 0-0.4 0.3-0.7 0.3-0.3 0.7-0.3h69.7q0.4 0 0.7 0.3 0.3 0.3 0.3 0.7 0 0.4-0.3 0.7-0.3 0.3-0.7 0.3z"/>
			<path id="Layer" class="s2" d="m186.5 114.2h-30.8q-0.2 0-0.4-0.2-0.1-0.1-0.1-0.3 0-0.3 0.1-0.4 0.2-0.1 0.4-0.1h30.8q0.2 0 0.4 0.1 0.1 0.1 0.1 0.4 0 0.2-0.1 0.3-0.2 0.2-0.4 0.2z"/>
			<path id="Layer" class="s2" d="m211.1 126h-1q-0.2 0-0.4-0.1-0.1-0.2-0.1-0.4 0-0.2 0.1-0.3 0.2-0.2 0.4-0.2h1q0.2 0 0.3 0.2 0.2 0.1 0.2 0.3 0 0.2-0.2 0.4-0.1 0.1-0.3 0.1zm-5 0h-3q-0.2 0-0.4-0.1-0.1-0.2-0.1-0.4 0-0.2 0.1-0.3 0.2-0.2 0.4-0.2h3q0.2 0 0.3 0.2 0.2 0.1 0.2 0.3 0 0.2-0.2 0.4-0.1 0.1-0.3 0.1zm-11 0h-12q-0.2 0-0.4-0.1-0.1-0.2-0.1-0.4 0-0.2 0.1-0.3 0.2-0.2 0.4-0.2h12q0.2 0 0.3 0.2 0.2 0.1 0.2 0.3 0 0.2-0.2 0.4-0.1 0.1-0.3 0.1zm-21 0h-1q-0.2 0-0.4-0.1-0.1-0.2-0.1-0.4 0-0.2 0.1-0.3 0.2-0.2 0.4-0.2h1q0.2 0 0.3 0.2 0.2 0.1 0.2 0.3 0 0.2-0.2 0.4-0.1 0.1-0.3 0.1zm-5 0h-3q-0.2 0-0.4-0.1-0.1-0.2-0.1-0.4 0-0.2 0.1-0.3 0.2-0.2 0.4-0.2h3q0.2 0 0.3 0.2 0.2 0.1 0.2 0.3 0 0.2-0.2 0.4-0.1 0.1-0.3 0.1zm-11 0h-12q-0.2 0-0.4-0.1-0.1-0.2-0.1-0.4 0-0.2 0.1-0.3 0.2-0.2 0.4-0.2h12q0.2 0 0.3 0.2 0.2 0.1 0.2 0.3 0 0.2-0.2 0.4-0.1 0.1-0.3 0.1zm-21 0h-1q-0.2 0-0.4-0.1-0.1-0.2-0.1-0.4 0-0.2 0.1-0.3 0.2-0.2 0.4-0.2h1q0.2 0 0.3 0.2 0.2 0.1 0.2 0.3 0 0.2-0.2 0.4-0.1 0.1-0.3 0.1zm-5 0h-3q-0.2 0-0.4-0.1-0.1-0.2-0.1-0.4 0-0.2 0.1-0.3 0.2-0.2 0.4-0.2h3q0.2 0 0.3 0.2 0.2 0.1 0.2 0.3 0 0.2-0.2 0.4-0.1 0.1-0.3 0.1zm-11 0h-12q-0.2 0-0.4-0.1-0.1-0.2-0.1-0.4 0-0.2 0.1-0.3 0.2-0.2 0.4-0.2h12q0.2 0 0.3 0.2 0.2 0.1 0.2 0.3 0 0.2-0.2 0.4-0.1 0.1-0.3 0.1z"/>
		</g>
		<path id="Layer" class="s3" d="m200.9 161.5h-148.3q-0.4 0-0.7-0.3-0.3-0.3-0.3-0.7 0-0.4 0.3-0.7 0.3-0.3 0.7-0.3h148.3q0.4 0 0.7 0.3 0.3 0.3 0.3 0.7 0 0.4-0.3 0.7-0.3 0.3-0.7 0.3z"/>
	</g>
	<path id="Layer" class="s4" d="m41.4 183.1c-8.6 0-15.6-2.1-15.6-4.6 0-2.6 7-4.7 15.6-4.7 8.6 0 15.6 2.1 15.6 4.7 0 2.5-7 4.6-15.6 4.6z"/>
	<g id="Layer" style="opacity: .4">
		<path id="Layer" class="s2" d="m28.9 161.5h-27.7q-0.4 0-0.7-0.3-0.3-0.3-0.3-0.7 0-0.4 0.3-0.7 0.3-0.3 0.7-0.3h27.7q0.4 0 0.7 0.3 0.3 0.3 0.3 0.7 0 0.4-0.3 0.7-0.3 0.3-0.7 0.3z"/>
		<path id="Layer" class="s2" d="m55.2 76.3h-49.9q-0.4 0-0.7-0.3-0.3-0.3-0.3-0.7 0-0.4 0.3-0.7 0.3-0.3 0.7-0.3h49.9q0.4 0 0.7 0.3 0.3 0.3 0.3 0.7 0 0.4-0.3 0.7-0.3 0.3-0.7 0.3z"/>
		<path id="Layer" class="s2" d="m46.1 71h-3q-0.2 0-0.4-0.2-0.1-0.1-0.1-0.3 0-0.2 0.1-0.4 0.2-0.1 0.4-0.1h3q0.2 0 0.3 0.1 0.2 0.2 0.2 0.4 0 0.2-0.2 0.3-0.1 0.2-0.3 0.2zm-11 0h-12q-0.2 0-0.4-0.2-0.1-0.1-0.1-0.3 0-0.2 0.1-0.4 0.2-0.1 0.4-0.1h12q0.2 0 0.3 0.1 0.2 0.2 0.2 0.4 0 0.2-0.2 0.3-0.1 0.2-0.3 0.2z"/>
	</g>
	<path id="Layer" class="s5" d="m125 47.9h24.5c0 0-7.7-17.1 8.6-19.3 14.4-2 20.2 12.9 20.2 12.9 0 0 1.7-8.6 10.3-7 8.5 1.6 14.8 14 14.8 14h21.2"/>
	<path id="Layer" class="s6" d="m16.1 20.2h13.6c0 0-4.3-9.5 4.8-10.7 8-1.1 11.2 7.2 11.2 7.2 0 0 0.9-4.8 5.7-3.9 4.8 0.9 8.2 7.2 8.2 7.2h11.9"/>
	<path id="Layer" class="s7" d="m109.1 203.2c-25.2 0-45.7-4.2-45.7-9.3 0-5.1 20.5-9.3 45.7-9.3 25.3 0 45.8 4.2 45.8 9.3 0 5.1-20.5 9.3-45.8 9.3z"/>
	<path id="Layer" class="s8" d="m169.1 117.3q-0.5 1.1-1 2.2-0.5 1.1-1.1 2.1-0.6 1-1.3 2-0.1 0.2-0.1 0.4 0 0.2-0.1 0.4-0.1 0.3-0.1 0.5-0.1 0.2-0.1 0.4l0.4 0.9c0.3 0.9 0.5 1.9 0.4 2.9-0.1 0.9-0.4 1.9-0.9 2.7-0.5 0.8-1.2 1.5-2 2.1-0.8 0.5-1.8 0.8-2.7 0.9q-0.7 1.1-1.8 1.8-1.1 0.7-2.4 0.9-1.2 0.3-2.5 0-1.3-0.3-2.3-1.1-0.6 0-1.3 0-0.7 0-1.5 0-1.3 0.5-2.8 0.9-1.4 0.4-2.8 0.8-1.4 0.3-2.9 0.5-1.5 0.3-2.9 0.4 0.3 2.5 0.4 5 0.2 2.5 0.1 5 0 2.5-0.3 4.9-0.2 2.5-0.6 5-0.2 1-0.6 2-0.3 1-0.9 2-0.5 0.9-1.2 1.7-0.7 0.8-1.5 1.5c-1 3.7-2.8 8.6-6 12.3q-0.6 0.8-1.5 1.3-0.9 0.5-1.9 0.7-1 0.2-2 0.1-1-0.1-1.9-0.5-0.3 0.1-0.6 0.2-0.3 0.1-0.6 0.1-0.3 0.1-0.6 0.1-0.3 0.1-0.6 0.1-1.1 0-2.1-0.4-1-0.3-1.9-1-0.8-0.7-1.4-1.6-0.6-0.9-0.8-1.9-0.2-0.1-0.3-0.2-0.1-0.1-0.2-0.2-0.1-0.1-0.2-0.2-0.1-0.1-0.2-0.2-0.9-1-1.3-2.1-0.5-1.2-0.4-2.5 0-1.3 0.5-2.4 0.5-1.2 1.5-2 0.5-0.6 1-1.2 0.5-0.7 0.9-1.4 0.5-0.6 0.8-1.4 0.4-0.7 0.7-1.4-0.3-0.7-0.4-1.4-0.1-0.7-0.2-1.4 0-0.7 0-1.4 0.1-0.7 0.2-1.4 0.2-1.5 0.4-3 0.1-1.4 0.2-2.9 0-1.5-0.1-3 0-1.5-0.2-2.9-1.6 0.4-3.3 0.7-1.6 0.3-3.3 0.5-1.6 0.2-3.3 0.3-1.7 0.1-3.4 0.1-2.1 0-4.3-0.2c-12.9-0.9-24.4-5.9-30.2-13.1-15.5-13.1-20.1-31.9-18.3-40.6 1.6-7.3 5-12 10.2-14q0.5-0.2 1.1-0.3 0.5-0.2 1.1-0.3 0.6-0.1 1.1-0.1 0.6-0.1 1.2-0.1 0.9 0.1 1.7 0.2 0.9 0.1 1.7 0.3 0.9 0.2 1.7 0.4 0.8 0.3 1.6 0.7 0.4 0.2 0.7 0.4 0.4 0.2 0.8 0.4 0.4 0.2 0.7 0.4 0.3 0.3 0.7 0.5 0.7 0.6 1.2 1.5 0.5 0.8 0.8 1.7 0.2 0.9 0.1 1.9-0.1 0.9-0.5 1.8 0.1 0 0.2 0.1 0.8 0.3 1.5 0.8 0.6 0.5 1.1 1.1 0.5 0.7 0.8 1.5 0.3 0.8 0.4 1.7l0.2 4.6q0.2 0.7 0.4 1.5 0.2 0.7 0.5 1.4 0.3 0.7 0.7 1.4 0.4 0.6 0.9 1.3 2-0.6 4.2-1.1l0.9-0.5q0-0.2 0.1-0.4 0.1-0.2 0.1-0.4 0.1-0.2 0.2-0.4 0.1-0.2 0.2-0.4 0-2 0.2-3.9 0.3-1.9 0.7-3.7 0.5-1.9 1.2-3.7 0.7-1.8 1.6-3.5c-2.3-14.9-2.9-36.4 6.9-56.7q0.7-1.5 1.8-2.7 1.2-1.3 2.6-2.2 1.5-0.9 3.1-1.4 1.6-0.5 3.3-0.5c2 0 4 0.6 5.8 1.6 1.8 0.9 3.3 2.4 4.4 4.1 1.1 1.7 1.7 3.7 1.8 5.7 0.1 2-0.3 4.1-1.2 5.9-4.7 9.9-5.9 20.7-5.8 29.1q1.4-0.4 2.9-0.7 1.6-0.3 3.1-0.5 1.5-0.2 3-0.3 1.6-0.1 3.1-0.1 0.9 0 1.9 0 0.4-0.8 0.9-1.4 0.6-0.6 1.4-1 0.7-0.5 1.5-0.7 0.8-0.2 1.7-0.2 0.1 0 0.2 0 0.1 0 0.2 0 0.1 0 0.2 0 0.1 0 0.2 0 0.5-0.3 0.9-0.6 0.5-0.2 1-0.4 0.5-0.2 1-0.3 0.6 0 1.1 0 0.1 0 0.1 0 0.1 0 0.1 0 0.1 0 0.1 0 0.1 0 0.1 0 0.9 0 1.8 0.3 0.8 0.3 1.5 0.9 0.7 0.5 1.3 1.2 0.5 0.7 0.8 1.6 0.8 0.1 1.5 0.4 0.6 0.3 1.2 0.8 0.6 0.5 1.1 1.1 0.5 0.6 0.8 1.3 0.8 0.2 1.6 0.6 0.8 0.5 1.4 1.1 0.6 0.7 1 1.5 0.4 0.8 0.6 1.6 2 1.3 4 2.8 1.9 1.5 3.6 3.2 1.8 1.7 3.4 3.6 1.5 1.9 2.9 3.9c6 9.2 7.6 19.5 4.6 29q-0.4 1.1-0.8 2.2z"/>
	<g id="Layer">
		<path id="Layer" class="s9" d="m165.7 113.3c-4.2 13.2-17.7 21.3-33.2 21.3q-1.8 0-3.5-0.2-1.8-0.1-3.5-0.4-1.8-0.3-3.5-0.7-1.7-0.4-3.4-0.9c-20.6-6.4-33-25.5-27.7-42.5 2.6-8.3 9-14.8 17.9-18.4 4.7-1.7 9.6-2.6 14.5-2.7 5-0.2 9.9 0.5 14.6 2 4.8 1.5 9.2 3.7 13.2 6.7 4 2.9 7.5 6.4 10.4 10.5 5.3 8 6.7 17 4.2 25.3z"/>
		<path id="Layer" class="s10" d="m122.4 157.1q0.4 0.3 0.6 0.8 0.2 0.4 0.3 0.9 0 0.5-0.1 1-0.4 1-0.7 2-0.4 1.1-0.8 2.1-0.4 1-0.9 1.9-0.4 1-0.9 2-0.4 0.7-0.8 1.4-0.5 0.7-1 1.3-0.5 0.6-1.1 1.1-0.6 0.6-1.3 1c-0.6 0.4-1.2 0.5-1.9 0.3-0.6-0.2-1.2-0.6-1.5-1.1-0.3-0.6-0.5-1.3-0.3-1.9 0.1-0.6 0.5-1.2 1-1.6q0.4-0.3 0.8-0.6 0.3-0.4 0.6-0.7 0.3-0.4 0.6-0.8 0.2-0.5 0.4-0.9 0.5-0.8 0.9-1.7 0.4-0.9 0.7-1.8 0.4-0.8 0.7-1.7 0.4-0.9 0.7-1.8 0.1-0.4 0.3-0.8 0.3-0.3 0.6-0.5 0.3-0.3 0.7-0.4 0.4-0.1 0.8-0.1 0.1 0 0.2 0 0.1 0 0.2 0 0.1 0 0.2 0.1 0 0 0.1 0 0.5 0.2 0.9 0.5z"/>
		<path id="Layer" class="s11" d="m125.1 160.5q0.3 0.4 0.6 0.8 0.2 0.5 0.2 1 0.1 0.5-0.1 0.9-0.3 1.1-0.7 2.1-0.3 1-0.8 2-0.4 1-0.8 2-0.5 1-1 1.9-0.3 0.7-0.8 1.4-0.4 0.7-1 1.3-0.5 0.6-1.1 1.2-0.6 0.5-1.2 1c-0.6 0.3-1.3 0.4-1.9 0.2-0.7-0.1-1.2-0.5-1.6-1.1-0.3-0.5-0.4-1.2-0.3-1.8 0.2-0.7 0.5-1.3 1.1-1.6q0.4-0.3 0.7-0.7 0.3-0.3 0.7-0.7 0.3-0.4 0.5-0.8 0.3-0.4 0.5-0.9 0.4-0.8 0.8-1.7 0.4-0.8 0.8-1.7 0.4-0.9 0.7-1.8 0.3-0.9 0.6-1.8 0.2-0.5 0.5-0.9 0.3-0.3 0.8-0.6 0.4-0.2 0.9-0.3 0.5 0 1 0.2 0.5 0.1 0.9 0.4z"/>
		<path id="Layer" class="s12" d="m129.4 161q0.1 0.2 0.2 0.5 0 0.2 0 0.5 0 0.2 0 0.5-0.3 1-0.5 2.1-0.3 1-0.6 2.1-0.3 1-0.6 2-0.3 1-0.7 2.1-0.3 0.7-0.7 1.4-0.3 0.8-0.8 1.4-0.4 0.7-1 1.3-0.5 0.6-1.1 1.2c-0.5 0.4-1.2 0.6-1.9 0.5-0.6-0.1-1.3-0.4-1.7-0.9-0.4-0.6-0.6-1.2-0.5-1.9 0.1-0.7 0.4-1.3 1-1.7q0.3-0.4 0.6-0.7 0.3-0.4 0.5-0.8 0.3-0.5 0.5-0.9 0.2-0.4 0.4-0.9 0.3-0.9 0.6-1.8 0.3-0.9 0.6-1.8 0.3-0.9 0.5-1.9 0.2-0.9 0.4-1.8 0.1-0.5 0.3-0.8 0.2-0.4 0.6-0.7 0.3-0.3 0.7-0.4 0.4-0.2 0.9-0.2 0 0 0.1 0 0.1 0 0.1 0 0.1 0.1 0.1 0.1 0.1 0 0.2 0 0.2 0 0.4 0.1 0.3 0.1 0.5 0.3 0.2 0.1 0.4 0.3 0.1 0.2 0.3 0.4 0.1 0.2 0.2 0.4z"/>
		<path id="Layer" class="s13" d="m150.9 132.3q-0.8 0-1.6-0.1-0.8-0.2-1.6-0.4-0.8-0.3-1.5-0.6-0.7-0.4-1.4-0.9l-6.7-4.8c-1.1-0.9-2.1-1.9-2.9-3.1-0.7-1.2-1.2-2.6-1.4-4-0.3-1.4-0.2-2.8 0.1-4.2 0.3-1.3 0.9-2.6 1.7-3.8 0.8-1.2 1.8-2.1 2.9-2.9 1.2-0.8 2.5-1.3 3.9-1.5 1.4-0.2 2.8-0.2 4.2 0.1 1.3 0.3 2.6 0.9 3.7 1.7l6.7 4.9c1.2 0.8 2.1 1.9 2.9 3.1 0.7 1.2 1.2 2.5 1.4 3.9 0.3 1.4 0.2 2.8-0.1 4.2-0.3 1.4-0.8 2.7-1.7 3.8q-0.7 1.1-1.6 1.9-1 0.9-2.1 1.5-1.1 0.6-2.4 0.9-1.2 0.3-2.5 0.3z"/>
		<path id="Layer" class="s14" d="m145.8 73.3q0.1 0.2 0.1 0.3 0 0.2 0 0.3 0 0.2-0.1 0.3l-4 7.7q-0.1 0.2-0.2 0.3-0.1 0.1-0.3 0.2-0.1 0.1-0.3 0.1-0.2 0-0.4-0.1l-11.6-3.4q-0.2-0.1-0.4-0.3-0.1-0.1-0.2-0.3-0.1-0.2-0.1-0.5 0-0.2 0.1-0.4l0.9-1.5c0.1-1.4 0.7-6.7 1-8.5q0-0.3 0.2-0.5 0.3-0.3 0.6-0.3 0.3-0.1 0.6 0.1 0.3 0.1 0.5 0.4l1.3 3 1.6-4.2q0.2-0.3 0.4-0.5 0.3-0.2 0.6-0.2 0.4 0.1 0.6 0.3 0.3 0.2 0.3 0.5l1.2 5.1 1.9-1.7q0.2-0.2 0.5-0.3 0.3 0 0.6 0.1 0.3 0.2 0.4 0.4 0.2 0.3 0.1 0.6l-0.3 3.4 3.2-0.9q0.2-0.1 0.3-0.1 0.2 0 0.3 0.1 0.1 0 0.3 0.1 0.1 0.1 0.2 0.2 0.1 0.1 0.1 0.2z"/>
		<path id="Layer" class="s15" d="m95.3 110.3q-0.1 0.3-0.2 0.6-0.2 0.3-0.4 0.5-0.3 0.2-0.6 0.3l-4.4 1q0 0-0.1 0 0 0 0 0-0.1 0-0.1 0-0.1 0-0.1 0-0.4 0-0.8-0.2-0.4-0.2-0.6-0.6-0.1-0.4-0.1-0.8 0-0.5 0.3-0.8l1.3-1.6-2.8-1q-0.4-0.2-0.6-0.5-0.3-0.3-0.4-0.8 0-0.4 0.2-0.8 0.2-0.3 0.5-0.6l4.1-2.6q0.3-0.2 0.7-0.2 0.3-0.1 0.6 0 0.4 0.1 0.6 0.4 0.2 0.2 0.4 0.5l2.4 6.6q0.1 0.3 0.1 0.6z"/>
		<path id="Layer" class="s16" d="m161 128.7q0 0.5-0.3 0.8-0.3 0.3-0.7 0.4-0.4 0.1-0.8 0l-2.9-0.7 0.1 2q0 0.3-0.1 0.6-0.1 0.3-0.3 0.5-0.2 0.3-0.5 0.4-0.3 0.1-0.6 0.1-0.1 0-0.3 0-0.1-0.1-0.3-0.1-0.1-0.1-0.3-0.2-0.1-0.1-0.2-0.2l-3-3.4q-0.2-0.2-0.3-0.5-0.1-0.3-0.1-0.6 0.1-0.4 0.2-0.6 0.2-0.3 0.5-0.5l5.7-4q0.2-0.1 0.3-0.1 0.2-0.1 0.4-0.1 0.1-0.1 0.3 0 0.2 0 0.3 0 0.2 0.1 0.3 0.1 0.2 0.1 0.3 0.2 0.1 0.2 0.2 0.3 0.1 0.1 0.2 0.3l1.8 4.5q0.2 0.4 0.1 0.8z"/>
		<path id="Layer" class="s17" d="m128 124.1c-0.6 9.1-12.9 16-28.5 16q-1.9 0-3.9-0.2c-8.2-0.6-15.8-2.9-21.4-6.6-5.8-3.9-8.8-8.7-8.4-13.6 0.6-9.2 12.9-16 28.5-16q0.5 0 1 0 0.5 0 1 0 0.4 0 0.9 0.1 0.5 0 1 0c8.2 0.6 15.8 3 21.4 6.7 5.8 3.8 8.8 8.7 8.4 13.6z"/>
		<path id="Layer" class="s18" d="m84.7 131.2c-0.3 0.9-0.8 1.7-1.6 2.3-0.7 0.6-1.6 1-2.5 1.1-1 0.1-1.9-0.1-2.8-0.5-23.7-12.8-27.5-35.9-26.1-42.4 1.2-5.7 3.6-9.2 7.2-10.6q0.3-0.1 0.7-0.2 0.4-0.1 0.7-0.1 0.4-0.1 0.7-0.1 0.4-0.1 0.8-0.1 0.9 0.1 1.7 0.2 0.9 0.2 1.7 0.5 0.9 0.2 1.7 0.6 0.8 0.4 1.5 0.9 0.2 0.1 0.3 0.3 0.1 0.2 0.1 0.4 0 0.2-0.1 0.4 0 0.2-0.2 0.4c-3.5 3.9-4.9 5.4-5.5 6q-0.1 0-0.1 0.1-0.1 0-0.1 0-0.1 0.1-0.1 0.1-0.1 0.1-0.2 0.1 0 0 0 0 0 0-0.1 0 0 0 0 0 0 0 0 0c-0.2 0.1-0.9 0.7-1.4 3.1-0.8 3.9 2.5 21.8 21.4 31.9q0.4 0.3 0.7 0.6 0.4 0.3 0.7 0.6 0.3 0.4 0.5 0.8 0.2 0.4 0.4 0.9c0.2 0.9 0.2 1.8 0 2.7z"/>
		<path id="Layer" class="s19" d="m132.8 158.3q-0.2 1.3-0.9 2.5-0.7 1.2-1.8 2-1 0.9-2.3 1.3-1.3 0.5-2.6 0.4-0.2 0-0.4 0-0.1 0-0.3 0-0.2 0-0.3 0-0.2 0-0.4-0.1-0.7-0.1-1.5-0.4-0.7-0.2-1.4-0.7-0.6-0.4-1.2-0.9-0.5-0.5-1-1.2-0.4-0.6-0.7-1.2-0.3-0.7-0.5-1.4-0.1-0.7-0.1-1.4-0.1-0.8 0.1-1.5c4.4-24.4-14.3-50-14.5-50.2q-0.4-0.6-0.8-1.3-0.3-0.7-0.4-1.4-0.2-0.7-0.3-1.5 0-0.7 0.1-1.4 0.2-0.8 0.4-1.5 0.3-0.7 0.7-1.3 0.4-0.7 1-1.2 0.5-0.5 1.1-1 0.5-0.3 1.1-0.6 0.5-0.2 1.1-0.4 0.5-0.2 1.1-0.3 0.6-0.1 1.2-0.1 1 0 1.8 0.2 0.9 0.2 1.8 0.6 0.8 0.5 1.5 1 0.7 0.6 1.3 1.4c0.9 1.2 22.7 30.8 17.1 61.6z"/>
		<path id="Layer" class="s20" d="m84.7 107.9q0.8 0.3 1.5 0.9 0.7 0.6 1.1 1.5 0.4 0.8 0.4 1.7 0.1 0.5 0 0.9-0.1 0.5-0.2 1-0.2 0.4-0.4 0.8-0.2 0.4-0.6 0.8-0.3 0.3-0.7 0.6-0.3 0.3-0.8 0.5-0.4 0.2-0.8 0.3-0.5 0.2-1 0.2-0.6 0-1.2 0c-11.4 0-17.1-9.9-18.5-18.4q0-0.1 0-0.2 0-0.1 0-0.2 0.1-0.1 0.1-0.2 0.1-0.1 0.2-0.2l6.6-7q0.2-0.3 0.5-0.3 0.3-0.1 0.6 0 0.3 0.1 0.5 0.3 0.2 0.3 0.2 0.6l0.2 5c0.2 0.9 2.3 11 9.6 11q0.3 0 0.6 0 0.1 0 0.3 0 0.9 0 1.8 0.4z"/>
		<path id="Layer" class="s21" d="m115 30.8q0.1 0.7 0.1 1.4-0.1 0.8-0.3 1.5-0.2 0.7-0.5 1.3c-13 26.1-2.6 57.1-2.5 57.4q0.3 0.7 0.4 1.4 0.1 0.7 0 1.5 0 0.7-0.2 1.4-0.2 0.7-0.6 1.4-0.3 0.7-0.8 1.3-0.5 0.6-1.1 1.1-0.5 0.5-1.2 0.9-0.7 0.3-1.4 0.6-0.3 0.1-0.6 0.1-0.3 0.1-0.7 0.2-0.3 0-0.6 0-0.3 0.1-0.6 0.1-1.2 0-2.4-0.4-1.1-0.4-2.1-1-1-0.7-1.8-1.7-0.7-1-1.1-2.1c-0.5-1.5-12.6-37.1 3.2-68.7q0.7-1.4 1.9-2.4 1.2-1 2.6-1.5 1.5-0.5 3-0.4 1.5 0.1 2.9 0.7 0.7 0.4 1.4 0.8 0.6 0.5 1.1 1 0.5 0.6 0.9 1.2 0.4 0.7 0.7 1.4 0.2 0.7 0.3 1.5z"/>
	</g>
	<g id="Layer">
		<path id="Layer" class="s22" d="m104.9 129.4q0.2 0.3 0.1 0.6 0 0.3-0.2 0.5-0.2 0.3-0.5 0.3-1.2 0.4-2.5 0.6-1.2 0.3-2.5 0.5-1.2 0.1-2.5 0.2-1.3 0.1-2.6 0.1c-12.2 0-21.9-5.4-21.9-12.2 0-5.8 7.3-10.7 17.6-11.9q0.3 0 0.5 0.1 0.2 0.1 0.3 0.2 0.2 0.1 0.3 0.3 0.1 0.2 0.1 0.4c0 7.8 5.3 15.6 13.4 19.9q0.3 0.1 0.4 0.4z"/>
		<path id="Layer" class="s22" d="m157.2 112.5q-0.1 0.4-0.2 0.7-0.2-0.1-0.3-0.3-0.2-0.1-0.3-0.2-0.2-0.2-0.3-0.3-0.2-0.1-0.4-0.2l-6.3-4.5c-1.7-1.2-3.7-1.8-5.7-1.8-2.1-0.1-4.1 0.6-5.8 1.8-1.7 1.1-3 2.8-3.7 4.7-0.7 2-0.8 4.1-0.2 6.1 4.3 1 6.9 2.1 6.2 4.5q-0.1 0.2-0.2 0.5-0.1 0.2-0.3 0.5-0.1 0.2-0.2 0.5-0.2 0.2-0.4 0.4l2.4 1.7q0.3-0.1 0.6-0.2 0.3-0.1 0.6-0.2 0.3-0.1 0.6-0.2 0.3-0.2 0.6-0.3 0 0 0.1 0 0-0.1 0.1-0.1 0 0 0.1 0 0-0.1 0.1-0.1 0.2 0 0.3 0.1 0.2 0.1 0.3 0.2 0 0.2 0 0.4-0.1 0.2-0.3 0.3-0.1 0-0.3 0.1-0.3 0.2-0.6 0.3-0.3 0.1-0.6 0.2-0.3 0.2-0.6 0.3-0.4 0.1-0.7 0.2-0.9 0.2-1.8 0.5-0.9 0.2-1.9 0.3-0.9 0.2-1.8 0.3-1 0.1-1.9 0.1c-3.4 0.9-8.1 0.8-14.3-1.2-5.8-1.8-9.6-4.3-11.9-6.8q-1.1-0.9-2-1.8-0.7-0.6-1.4-1.3-0.7-0.6-1.4-1.3-0.7-0.7-1.3-1.4-0.6-0.7-1.2-1.5-0.6-0.8-1.2-1.6-0.1-0.2 0-0.4 0-0.2 0.2-0.3 0.2-0.1 0.4 0 0.2 0 0.3 0.2 0.2 0.3 0.4 0.6 0.3 0.4 0.5 0.7 0.2 0.3 0.5 0.6 0.2 0.3 0.5 0.6h2.4q0-0.2 0.1-0.5 0-0.2 0-0.5 0-0.2 0.1-0.5 0-0.2 0.1-0.5c0.8-2.5 3.8-1.7 8.1 0.1 1.6-1.2 2.8-2.9 3.4-4.8 0.5-1.9 0.5-3.9-0.1-5.8-0.7-1.9-1.9-3.5-3.5-4.7-1.6-1.2-3.5-1.8-5.5-1.8h-7.8q-0.2 0-0.4 0.1-0.3 0-0.5 0-0.2 0-0.4 0-0.2 0.1-0.4 0.1 0.1-0.6 0.3-1.2c2.5-8 10.4-3.2 21.8 1.7q0-0.6 0.1-1.1 0-0.5 0.1-1 0.1-0.5 0.1-1 0.1-0.5 0.2-1 0-0.4 0.2-0.6 0.3-0.3 0.6-0.3 0.3-0.1 0.6 0.1 0.3 0.2 0.5 0.5l1.9 4.3 2.3-6q0-0.1 0.1-0.2 0.1-0.2 0.3-0.2 0.1-0.1 0.3-0.2 0.1 0 0.3 0 0.1 0 0.3 0.1 0.1 0 0.3 0.1 0.1 0.1 0.2 0.3 0.1 0.1 0.1 0.3l1.6 6.9 2.6-2.5q0.3-0.2 0.6-0.3 0.3 0 0.6 0.1 0.2 0.2 0.4 0.4 0.2 0.3 0.1 0.6l-0.4 4.7 4.4-1.3q0.3-0.1 0.6 0 0.2 0.1 0.4 0.3 0.2 0.2 0.3 0.5 0 0.3-0.1 0.6l-0.9 1.7c11.9 2.5 20.8 3.2 18.3 11.1z"/>
	</g>
	<g id="Layer">
		<path id="Layer" fill-rule="evenodd" class="s23" d="m111.3 24.4c1.3 0.7 2.4 1.8 3.2 3 0.8 1.3 1.3 2.7 1.3 4.2 0.1 1.5-0.2 3-0.8 4.3-5.8 12-6.6 25.2-6.1 34.9q1.9-0.7 3.7-1.2 1.9-0.5 3.8-0.9 1.9-0.4 3.9-0.5 1.9-0.2 3.9-0.2 0.5 0 1.1 0 0.5 0 1 0.1 0.6 0 1.1 0 0.5 0.1 1.1 0.1l0.1-0.8q0.1-0.9 0.6-1.5 0.5-0.7 1.3-1 0.8-0.3 1.6-0.1 0.8 0.1 1.4 0.7l0.1-0.2q0.1-0.4 0.4-0.8 0.3-0.3 0.7-0.6 0.4-0.2 0.8-0.4 0.4-0.1 0.9-0.1 0 0 0 0 0.1 0 0.1 0 0 0 0 0 0.1 0 0.1 0 0.5 0 0.9 0.2 0.5 0.2 0.8 0.5 0.4 0.3 0.6 0.8 0.3 0.4 0.4 0.8l0.4 1.9q0.8-0.3 1.6-0.3 0.8 0.1 1.5 0.5 0.6 0.5 1 1.2 0.3 0.8 0.3 1.6l-0.1 0.4 0.3-0.1q0.8-0.2 1.6 0 0.8 0.2 1.4 0.7 0.6 0.6 0.8 1.3 0.2 0.8 0 1.6 2.2 1.2 4.2 2.7 2 1.5 3.8 3.2 1.9 1.7 3.5 3.5 1.6 1.9 3 4c5.4 8.3 6.9 17.6 4.2 26.2q-0.4 1.1-0.8 2.2-0.4 1.1-1 2.1-0.5 1-1.1 2-0.6 1-1.3 1.9-0.1 0.4-0.1 0.8-0.1 0.4-0.2 0.8-0.1 0.4-0.2 0.7-0.2 0.4-0.3 0.8l0.8 2q0.3 0.7 0.2 1.5 0 0.7-0.4 1.4-0.5 0.6-1.1 0.9-0.7 0.4-1.4 0.4-0.1 0-0.2 0-0.1 0-0.2 0-0.1-0.1-0.2-0.1-0.1 0-0.2 0l-0.9-0.3c0.1 0.7-0.1 1.3-0.4 1.8-0.4 0.5-0.8 0.9-1.4 1.2-0.6 0.2-1.2 0.3-1.8 0.1-0.6-0.1-1.2-0.4-1.6-0.9l-0.4-0.4q-0.5 0.1-1 0.1-0.6 0.1-1.1 0.1-0.6 0-1.1 0-0.6-0.1-1.1-0.1-1.7 0.7-3.6 1.2-1.8 0.5-3.6 0.9-1.9 0.4-3.8 0.6-1.9 0.1-3.7 0.2 0.4 2.7 0.7 5.5 0.2 2.8 0.3 5.7 0 2.8-0.2 5.6-0.3 2.8-0.7 5.5-0.2 0.9-0.5 1.8-0.4 0.8-0.9 1.6-0.5 0.7-1.1 1.3-0.6 0.7-1.4 1.2c-0.7 3.2-2.3 8.4-5.5 12q-0.5 0.6-1.1 0.9-0.7 0.2-1.4 0.2-0.7 0-1.3-0.3-0.6-0.4-1.1-0.9-0.1 0.1-0.3 0.3c-0.4 0.4-1 0.7-1.6 0.8-0.6 0.1-1.3 0-1.8-0.3-0.6-0.2-1.1-0.6-1.4-1.2-0.3-0.5-0.5-1.1-0.5-1.7q0-0.1 0-0.1 0.1-0.1 0.1-0.2 0 0 0-0.1 0-0.1 0-0.1c-0.6-0.1-1.1-0.4-1.5-0.8-0.4-0.4-0.7-0.9-0.9-1.4-0.2-0.6-0.2-1.2 0-1.7 0.2-0.6 0.5-1.1 0.9-1.5q0.8-0.8 1.5-1.7 0.6-0.9 1.2-1.9 0.6-0.9 1.1-2 0.5-1 0.8-2.1-0.2-0.6-0.4-1.2-0.2-0.6-0.3-1.3-0.1-0.6 0-1.3 0-0.6 0.1-1.3 0.3-2 0.5-4.1 0.1-2.1 0.1-4.2 0-2.1-0.2-4.1-0.2-2.1-0.6-4.2-1.9 0.7-3.9 1.2-2 0.5-4 0.8-2 0.3-4 0.5-2 0.2-4.1 0.1-0.5 0-1 0-0.5 0-1 0-0.5 0-1 0-0.6-0.1-1.1-0.1c-12.2-0.9-22.9-5.5-28.1-12.2-15.2-12.7-18.9-30.7-17.4-37.6 1.3-6.2 4-10.1 8.1-11.6q0.4-0.2 0.8-0.3 0.5-0.1 0.9-0.2 0.4 0 0.8-0.1 0.5 0 0.9 0 1 0 2 0.2 1 0.2 1.9 0.5 1 0.3 1.8 0.8 0.9 0.4 1.8 1 0.4 0.3 0.6 0.8 0.3 0.5 0.3 1 0.1 0.5-0.1 1-0.1 0.5-0.5 0.9c-4 4.4-5.2 5.7-5.8 6.3q-0.3 0.3-0.4 0.6-0.2 0.3-0.4 0.7-0.2 0.3-0.3 0.6-0.1 0.4-0.2 0.7-0.1 0.4-0.1 0.8 0 0.3 0 0.7 0 0.3 0 0.7 0.1 0.4 0.1 0.7 0.1 0 0.1-0.1 0 0 0.1-0.1 0 0 0-0.1 0.1 0 0.1 0l6.6-7q0.2-0.2 0.4-0.4 0.2-0.1 0.4-0.2 0.3-0.1 0.5-0.2 0.3 0 0.5 0 0.1 0 0.2 0 0.1 0 0.2 0 0.2 0 0.3 0 0.1 0.1 0.2 0.1 0.3 0.1 0.6 0.4 0.3 0.2 0.5 0.5 0.2 0.3 0.4 0.6 0.1 0.4 0.1 0.7l0.3 4.9c0.1 0.9 1.4 6.6 4.9 8.8q0.8-0.3 1.6-0.5 0.8-0.2 1.5-0.4 0.8-0.2 1.7-0.4 0.8-0.2 1.6-0.3 0-0.1 0.1-0.1 0 0 0.1-0.1 0 0 0.1-0.1 0 0 0.1 0l1.8-1.2q0.1-0.4 0.2-0.8 0.2-0.4 0.3-0.8 0.1-0.3 0.3-0.7 0.2-0.4 0.3-0.7 0-1.9 0.2-3.9 0.2-1.9 0.7-3.8 0.5-1.9 1.3-3.7 0.7-1.8 1.7-3.5c-2.4-14.6-3.2-35.9 6.4-55.8q0.5-1.2 1.4-2.1 0.8-0.9 1.8-1.6 1.1-0.6 2.3-1 1.2-0.3 2.4-0.3c1.5 0 2.9 0.4 4.2 1.1zm-6.1 1.2q-0.9 0.2-1.7 0.7-0.8 0.5-1.4 1.3-0.7 0.7-1.1 1.5c-9.8 20.2-8.4 42.1-6.1 55.4q-1.1 1.7-1.8 3.5-0.8 1.8-1.3 3.7-0.5 1.9-0.7 3.9-0.2 1.9-0.1 3.9-0.3 0.4-0.5 0.9-0.2 0.4-0.4 0.9-0.1 0.4-0.3 0.9-0.1 0.5-0.2 1l-2.5 1.6q-0.1 0.1-0.2 0.1 0 0.1-0.1 0.2 0 0-0.1 0.1 0 0 0 0.1-1 0.2-2 0.4-0.9 0.2-1.9 0.4-1 0.3-1.9 0.6-0.9 0.3-1.9 0.6c-5.2-2.4-6.7-10.5-6.7-10.8l-0.3-5q0 0 0-0.1 0-0.1-0.1-0.1 0-0.1-0.1-0.1 0-0.1-0.1-0.1 0 0-0.1 0 0 0 0 0 0 0 0 0-0.1 0-0.1 0 0 0-0.1 0 0 0-0.1 0 0 0-0.1 0.1 0 0-0.1 0l-6.5 7q-0.1 0.1-0.1 0.1 0 0.1-0.1 0.1 0 0.1 0 0.1 0 0.1 0 0.2c0.7 4 2.8 9.9 6.4 13.5q-0.3 0.3-0.6 0.6-0.2 0.3-0.5 0.6-0.3 0.3-0.5 0.6-0.3 0.3-0.5 0.7c-7.4-9.5-8.6-18.8-7.8-21q0.1-0.5 0.3-0.9 0.2-0.5 0.4-0.9 0.2-0.4 0.4-0.8 0.3-0.4 0.6-0.8 0 0 0 0 0 0 0 0 0 0 0 0 0 0 0 0c0.5-0.5 1.8-1.8 5.8-6.2q0.1-0.1 0.1-0.2 0.1-0.1 0.1-0.2-0.1-0.1-0.1-0.2-0.1-0.1-0.1-0.2-0.7-0.5-1.5-0.8-0.7-0.4-1.5-0.7-0.8-0.3-1.6-0.4-0.9-0.2-1.7-0.2-0.3 0-0.7 0-0.3 0-0.7 0.1-0.3 0.1-0.6 0.2-0.3 0-0.7 0.2c-3.4 1.2-5.7 4.7-6.8 10.1-1.4 6.5 2.2 23.7 16.9 35.8 4.7 6.3 15 10.7 26.8 11.6q2 0.1 3.9 0.1 2.3 0.1 4.5-0.1 2.2-0.2 4.5-0.7 2.2-0.4 4.3-1 2.2-0.7 4.2-1.5 0.6 2.4 0.9 4.8 0.3 2.5 0.4 5 0.1 2.5-0.1 4.9-0.2 2.5-0.5 5-0.1 0.6-0.1 1.2 0 0.6 0.1 1.2 0.1 0.5 0.3 1.1 0.2 0.6 0.5 1.1c-1 2.9-2.8 6.8-5.4 9.3-0.3 0.2-0.4 0.5-0.4 0.8 0 0.3 0.1 0.6 0.3 0.8 0.2 0.2 0.5 0.3 0.8 0.3 0.3 0.1 0.6-0.1 0.8-0.3q0.9-0.9 1.8-2 0.8-1 1.5-2.2 0.7-1.1 1.3-2.3 0.6-1.2 1-2.5 0.2 0.1 0.3 0.2 0.1 0.1 0.3 0.2 0.1 0.1 0.2 0.1 0.2 0.1 0.3 0.2c-0.9 2.8-2.7 7.5-5.8 10.4q-0.2 0.1-0.3 0.3 0 0.2-0.1 0.4 0 0.3 0.1 0.5 0.1 0.2 0.2 0.4 0.1 0 0.2 0.1 0.1 0.1 0.2 0.1 0.1 0.1 0.2 0.1 0.2 0 0.3 0 0.1 0 0.2 0 0.1 0 0.2-0.1 0.1 0 0.2-0.1 0.1 0 0.1-0.1c3.5-3.2 5.5-8.3 6.5-11.3q0.1 0 0.2 0 0.1 0 0.2 0 0.1 0 0.2 0 0.1 0 0.2 0 0.1 0 0.2 0 0 0 0.1 0 0.1 0 0.1 0 0.1 0 0.2 0c-0.8 3.1-2.1 7.1-4.5 9.8-0.2 0.3-0.3 0.6-0.3 0.9 0 0.3 0.1 0.6 0.4 0.8 0.2 0.2 0.5 0.3 0.8 0.2 0.3 0 0.6-0.1 0.8-0.4 3.1-3.6 4.6-9 5.2-12q0.8-0.4 1.4-0.9 0.6-0.5 1.1-1.1 0.4-0.7 0.7-1.4 0.4-0.7 0.5-1.5 0.5-3 0.7-6 0.2-3 0.1-6.1 0-3-0.4-6-0.3-3-0.9-6 0.8 0.1 1.6 0.1 2 0 3.9-0.2 2-0.2 3.9-0.6 1.9-0.3 3.8-0.9 1.9-0.6 3.7-1.3 0.6 0.1 1.3 0.2 0.7 0 1.3 0 0.7-0.1 1.3-0.2 0.7-0.1 1.3-0.3l1.2 1.3q0.2 0.3 0.5 0.4 0.3 0 0.6-0.1 0.3-0.1 0.5-0.4 0.2-0.3 0.1-0.6l-0.1-1.9q0.4-0.3 0.8-0.6l2.7 0.7q0 0 0.1 0 0 0.1 0 0.1 0.1 0 0.1 0 0 0 0.1 0 0.2 0 0.4-0.1 0.3-0.2 0.4-0.4 0.1-0.2 0.2-0.4 0-0.3-0.1-0.5l-1.2-2.9q0.2-0.4 0.4-0.9 0.2-0.4 0.3-0.9 0.2-0.5 0.2-1 0.1-0.5 0.2-0.9 0.7-1 1.3-1.9 0.6-1 1.1-2 0.6-1 1-2.1 0.4-1 0.8-2.1c2.5-8 1.1-16.7-4-24.5q-1.5-2.2-3.2-4.1-1.7-2-3.6-3.7-1.9-1.7-4.1-3.2-2.1-1.5-4.4-2.7l0.5-1q0.1-0.3 0.1-0.5 0-0.3-0.1-0.5-0.2-0.2-0.4-0.4-0.2-0.1-0.5-0.1 0 0-0.1 0 0 0 0 0-0.1 0-0.1 0 0 0-0.1 0l-2.8 0.9q-0.2-0.1-0.3-0.1l0.3-3.2q0-0.3-0.2-0.6-0.1-0.3-0.4-0.4-0.3-0.1-0.6-0.1-0.3 0.1-0.5 0.3l-1.9 1.7-1.1-5.1q-0.1-0.2-0.2-0.3 0-0.2-0.2-0.3-0.1-0.1-0.2-0.1-0.2-0.1-0.3-0.1h-0.1q-0.2 0-0.3 0-0.2 0.1-0.3 0.2-0.1 0.1-0.2 0.2-0.1 0.1-0.2 0.2l-1.6 4.3-1.3-3q-0.2-0.3-0.5-0.4-0.2-0.2-0.6-0.2-0.3 0.1-0.5 0.3-0.3 0.3-0.3 0.6c-0.1 0.6-0.2 1.7-0.4 2.8q-0.7-0.1-1.5-0.2-0.7 0-1.5-0.1-0.7 0-1.5-0.1-0.8 0-1.5 0-1.9 0-3.8 0.2-1.8 0.1-3.7 0.5-1.8 0.3-3.6 0.8-1.8 0.5-3.6 1.2-0.3 0.2-0.6 0.3-0.3 0.1-0.6 0.2-0.3 0.2-0.6 0.3-0.2 0.1-0.5 0.3c-1-11.1-0.4-25.6 6-38.8 0.5-1 0.7-2.2 0.7-3.3-0.1-1.2-0.5-2.3-1.1-3.2-0.6-1-1.4-1.8-2.4-2.4-1-0.5-2.1-0.8-3.3-0.8q-1 0-1.9 0.3z"/>
		<path id="Layer" class="s24" d="m161.1 122.9q-0.1 0-0.2-0.1-0.1 0-0.2-0.1-0.1-0.1-0.1-0.2 0-0.1 0-0.2 0-0.9-0.1-1.8-0.2-0.9-0.4-1.8-0.3-0.9-0.6-1.7-0.4-0.9-0.9-1.7-0.1-0.1 0-0.3 0-0.2 0.2-0.3 0.1-0.2 0.4-0.1 0.2 0 0.3 0.2 0.5 0.9 0.9 1.8 0.4 0.9 0.7 1.9 0.2 0.9 0.4 1.9 0.1 1 0.1 2 0 0.1-0.1 0.2 0 0.1-0.1 0.1 0 0.1-0.1 0.1-0.1 0.1-0.2 0.1z"/>
		<path id="Layer" class="s25" d="m90.6 99.5q-0.1 0-0.2 0-0.1-0.1-0.2-0.2-0.1-0.2-0.1-0.3 0.1-0.1 0.1-0.3c1.8-2.4 5.5-3.6 5.7-3.7q0.1 0 0.3 0.1 0.2 0.1 0.3 0.3 0 0.1-0.1 0.3 0 0.2-0.2 0.3c-0.1 0-3.6 1.2-5.2 3.3q0 0.1 0 0.1-0.1 0-0.1 0.1-0.1 0-0.1 0-0.1 0-0.2 0z"/>
		<path id="Layer" class="s26" d="m144.4 77.7q-0.2 0-0.3 0-0.1-0.1-0.2-0.3 0-0.1 0-0.2 0-0.2 0.1-0.3c0.6-0.6 2.1-2.7 1.5-3.6-0.5-0.8-2.6 0.1-3.6 0.6q-0.1 0.1-0.2 0.1-0.2 0-0.3-0.1-0.1-0.1-0.2-0.2 0-0.2 0-0.3c0.2-1.3 0.3-3.5-0.3-3.9q0 0 0 0-0.1 0-0.1 0 0 0-0.1 0 0 0 0 0c-0.6 0.1-1.3 1.3-1.7 2.1q-0.1 0.1-0.2 0.2-0.2 0-0.4 0-0.1 0-0.2-0.1-0.1-0.1-0.2-0.3c-0.4-2.7-1.3-5.8-2-5.9 0 0-0.1 0-0.2 0.1-0.7 0.5-1.3 3.2-1.5 4.7q0 0.1 0 0.2-0.1 0.1-0.1 0.1-0.1 0.1-0.1 0.1-0.1 0.1-0.2 0.1-0.1 0-0.2 0 0-0.1-0.1-0.1-0.1 0-0.1-0.1-0.1-0.1-0.1-0.1c-0.7-1.8-2-3.6-2.5-3.6q-0.1 0-0.1 0.1c-0.6 1-0.2 4.9 0 5.4q0 0.1 0 0.2 0 0.1 0 0.2 0 0.1-0.1 0.2-0.1 0-0.2 0.1 0 0-0.1 0-0.1 0-0.2 0-0.1 0-0.2-0.1-0.1-0.1-0.1-0.2c-0.3-0.5-0.8-4.8 0-6.2q0-0.2 0.1-0.3 0.1-0.1 0.2-0.2 0.2-0.1 0.3-0.1 0.1-0.1 0.3-0.1c1.1-0.1 2.1 1.4 2.8 2.7 0.3-1.4 0.8-3.2 1.6-3.8q0.1-0.1 0.2-0.2 0.1 0 0.3 0 0.1-0.1 0.2-0.1 0.1 0 0.3 0c1.4 0.2 2.2 3.4 2.6 5.4q0.2-0.2 0.3-0.4 0.2-0.2 0.4-0.4 0.2-0.2 0.4-0.3 0.3-0.2 0.5-0.3 0.2 0 0.3 0 0.1 0 0.3 0 0.1 0 0.2 0.1 0.2 0 0.3 0.1c1 0.6 1 2.6 0.8 3.9 1.2-0.6 3.3-1.2 4.1 0.2 1 1.7-1.4 4.5-1.6 4.8q-0.1 0-0.1 0-0.1 0.1-0.1 0.1-0.1 0-0.1 0-0.1 0-0.1 0z"/>
		<path id="Layer" class="s27" d="m90.1 112.9q-0.2 0-0.3-0.1-0.2 0-0.4 0-0.2 0-0.3-0.1-0.2-0.1-0.4-0.1-0.1-0.1-0.3-0.2-0.1-0.1-0.2-0.3-0.2-0.1-0.2-0.3-0.1-0.1-0.1-0.3 0-0.4 0.1-0.8 0-0.3 0.2-0.7 0.1-0.3 0.4-0.7 0.2-0.3 0.5-0.5c-1.5-0.5-3.8-1.4-3.8-2.7 0-1.5 4-3.6 5.7-4.4q0.2-0.1 0.4-0.1 0.2 0.1 0.3 0.3 0.1 0.2 0 0.4-0.1 0.2-0.2 0.3c-2.8 1.3-5.2 2.9-5.2 3.5 0 0.5 2 1.4 3.8 1.9q0.1 0.1 0.2 0.1 0.1 0.1 0.2 0.3 0 0.1 0 0.2-0.1 0.2-0.2 0.3c-0.6 0.6-1.5 1.8-1.4 2.4 0 0.1 0 0.3 0.3 0.4 1.1 0.5 3.1-0.2 3.7-0.6q0.2-0.1 0.4 0 0.2 0.1 0.3 0.2 0.1 0.2 0 0.4 0 0.2-0.2 0.3-0.4 0.2-0.8 0.3-0.4 0.2-0.8 0.3-0.4 0.1-0.8 0.2-0.5 0-0.9 0.1z"/>
		<path id="Layer" class="s28" d="m155.3 133.3c-1.5 0-3.5-2.9-4.4-4.2q-0.1-0.2-0.1-0.4 0.1-0.2 0.2-0.3 0.2-0.1 0.4-0.1 0.2 0.1 0.3 0.3c1.5 2.3 3.2 3.9 3.6 3.7 0.5-0.2 0.6-1.9 0.4-3.4q-0.1-0.1 0-0.2 0-0.2 0.1-0.2 0.1-0.1 0.3-0.2 0.1 0 0.2 0.1c2 0.7 3.7 0.9 4 0.7 0.2-0.5-0.8-3.2-2.2-6q-0.1-0.1 0-0.3 0.1-0.2 0.2-0.3 0.2-0.1 0.4-0.1 0.2 0.1 0.3 0.3c0.9 1.7 2.8 5.7 2.2 6.8-0.6 1.1-2.9 0.6-4.5 0.1 0.1 1.2 0.1 3.2-1.1 3.7q0 0-0.1 0 0 0-0.1 0 0 0 0 0-0.1 0-0.1 0z"/>
		<path id="Layer" class="s29" d="m113.1 170q-0.2 0-0.3-0.1-0.1-0.1-0.2-0.2 0-0.2 0-0.3 0-0.2 0.1-0.3c5-4.6 6.9-13.6 6.9-13.7q0.1-0.2 0.3-0.3 0.1-0.1 0.3 0 0.2 0 0.4 0.2 0.1 0.1 0 0.3c-0.1 0.4-2 9.4-7.2 14.2q0 0.1 0 0.1-0.1 0-0.1 0.1-0.1 0-0.1 0-0.1 0-0.1 0z"/>
		<path id="Layer" class="s30" d="m115.8 172.9q-0.2 0-0.3-0.1-0.1-0.1-0.2-0.2 0-0.2 0-0.3 0-0.2 0.1-0.3c5-4.6 6.9-13.6 6.9-13.6q0.1-0.2 0.2-0.4 0.2-0.1 0.4 0 0.2 0 0.3 0.2 0.1 0.2 0.1 0.4c-0.1 0.3-2 9.3-7.2 14.2q0 0-0.1 0 0 0 0 0.1-0.1 0-0.1 0-0.1 0-0.1 0z"/>
		<path id="Layer" class="s31" d="m120.6 173q-0.1 0-0.2-0.1-0.1 0-0.2-0.2-0.1-0.1 0-0.2 0-0.2 0.1-0.3c4.4-5.1 5.4-14.2 5.4-14.3q0-0.1 0.1-0.2 0-0.1 0.1-0.2 0.1 0 0.2-0.1 0.1 0 0.2 0 0.1 0 0.1 0.1 0.1 0 0.2 0.1 0.1 0.1 0.1 0.2 0 0.1 0 0.2c0 0.4-1 9.5-5.7 14.9q0 0-0.1 0 0 0.1 0 0.1-0.1 0-0.1 0-0.1 0-0.2 0z"/>
		<path id="Layer" class="s32" d="m70.3 112.5q-0.2 0-0.3-0.1-0.1-0.1-0.2-0.2-0.1-0.2 0-0.3 0-0.2 0.1-0.3 1-1 2.2-1.9 1.1-0.8 2.4-1.6 1.3-0.7 2.6-1.3 1.3-0.5 2.7-1 0.2 0 0.4 0.1 0.2 0.1 0.3 0.3 0 0.2-0.1 0.4-0.1 0.1-0.3 0.2-1.3 0.4-2.6 0.9-1.3 0.6-2.5 1.3-1.2 0.7-2.3 1.5-1.1 0.8-2.1 1.8 0 0-0.1 0.1 0 0 0 0-0.1 0-0.1 0.1-0.1 0-0.1 0z"/>
		<path id="Layer" class="s33" d="m67.3 120.8q-0.1 0-0.2 0-0.1-0.1-0.1-0.1-0.1-0.1-0.1-0.1-0.1-0.1-0.1-0.2c-0.1-0.1-1.2-3.4 1.8-7.2q0.1-0.1 0.3-0.2 0.2 0 0.4 0.1 0.2 0.2 0.2 0.4 0 0.2-0.1 0.3c-2.6 3.4-1.7 6.3-1.7 6.3q0.1 0.1 0.1 0.2 0 0.1-0.1 0.2 0 0.1-0.1 0.2-0.1 0-0.2 0.1 0 0 0 0 0 0-0.1 0 0 0 0 0 0 0 0 0z"/>
		<path id="Layer" class="s34" d="m115.9 137.7q-0.2 0-0.3-0.1-0.2-0.1-0.2-0.3-0.1-0.2 0-0.3 0.1-0.2 0.3-0.3 0.5-0.2 1-0.4 0.5-0.3 0.9-0.5 0.5-0.3 1-0.6 0.4-0.3 0.9-0.6 0.2-0.1 0.4-0.1 0.2 0 0.3 0.2 0.1 0.2 0.1 0.4 0 0.2-0.2 0.3-0.5 0.3-1 0.6-0.5 0.4-1 0.6-0.5 0.3-1 0.6-0.5 0.2-1 0.5-0.1 0-0.1 0 0 0 0 0 0 0-0.1 0 0 0 0 0z"/>
		<path id="Layer" class="s35" d="m103.7 47.7q0 0 0 0-0.1 0-0.1-0.1 0 0 0 0-0.1 0-0.1 0-0.1 0-0.2-0.1 0-0.1-0.1-0.2 0-0.1 0-0.2 0-0.1 0.1-0.2c2.9-5.9 1.7-14.8 1.7-14.9q-0.1-0.2 0.1-0.4 0.1-0.1 0.3-0.2 0.2 0 0.3 0.1 0.2 0.2 0.2 0.4c0.1 0.3 1.4 9.3-1.7 15.5q-0.1 0-0.1 0.1-0.1 0-0.1 0.1-0.1 0-0.1 0-0.1 0.1-0.2 0.1z"/>
		<path id="Layer" class="s36" d="m107.3 50.2q0 0-0.1 0 0 0 0 0 0 0-0.1 0 0 0 0 0-0.1-0.1-0.2-0.1 0-0.1-0.1-0.2 0-0.1 0-0.2 0-0.1 0-0.2c3-5.9 1.7-14.8 1.7-14.9q0-0.2 0.1-0.4 0.2-0.1 0.4-0.2 0.2 0 0.3 0.1 0.2 0.1 0.2 0.3c0.1 0.4 1.3 9.4-1.8 15.6q0 0 0 0.1-0.1 0-0.1 0.1-0.1 0-0.2 0 0 0-0.1 0z"/>
		<path id="Layer" class="s37" d="m112 48.6q0 0-0.1 0 0 0 0 0 0 0 0 0-0.1 0-0.1 0-0.1-0.1-0.2-0.1 0-0.1-0.1-0.2 0-0.1 0-0.2 0-0.1 0-0.2c2.4-6.2 0.2-14.9 0.1-15q0-0.2 0.1-0.4 0.1-0.2 0.3-0.2 0.2-0.1 0.4 0 0.2 0.2 0.2 0.4c0.1 0.3 2.3 9.1-0.1 15.6q-0.1 0-0.1 0.1-0.1 0.1-0.1 0.1-0.1 0.1-0.2 0.1 0 0-0.1 0z"/>
		<path id="Layer" class="s38" d="m148.6 118.8q-0.1 0-0.3-0.1-0.1 0-0.3-0.1-0.1-0.1-0.2-0.3-0.1-0.1-0.1-0.3-0.2-0.3-0.4-0.7-0.2-0.3-0.5-0.6-0.3-0.3-0.6-0.5-0.4-0.2-0.8-0.4-0.4-0.1-0.8-0.1-0.4 0-0.8 0-0.4 0.1-0.8 0.2-0.4 0.2-0.7 0.4c-0.2 0.2-0.5 0.3-0.7 0.3-0.3 0-0.6-0.2-0.7-0.4-0.2-0.2-0.3-0.5-0.3-0.7 0.1-0.3 0.2-0.5 0.4-0.7 0.7-0.5 1.5-0.9 2.4-1.1 0.9-0.1 1.8 0 2.6 0.2 0.9 0.3 1.6 0.8 2.3 1.4 0.6 0.6 1 1.4 1.3 2.2q0.1 0.2 0 0.5 0 0.2-0.2 0.4-0.1 0.2-0.3 0.3-0.2 0.1-0.5 0.1z"/>
		<path id="Layer" class="s39" d="m109.3 106.3q-0.1 0-0.3 0-0.2-0.1-0.3-0.2-0.1-0.1-0.2-0.2-0.1-0.1-0.1-0.3-0.2-0.4-0.4-0.7-0.2-0.4-0.5-0.7-0.3-0.3-0.7-0.5-0.3-0.2-0.7-0.3-0.4-0.1-0.8-0.2-0.4 0-0.8 0.1-0.4 0-0.8 0.2-0.4 0.1-0.7 0.4c-0.2 0.2-0.5 0.3-0.8 0.2-0.2 0-0.5-0.1-0.6-0.3-0.2-0.2-0.3-0.5-0.3-0.8 0.1-0.2 0.2-0.5 0.4-0.7 0.7-0.5 1.5-0.9 2.4-1 0.9-0.2 1.8-0.1 2.6 0.2 0.8 0.2 1.6 0.7 2.2 1.3 0.7 0.7 1.1 1.4 1.4 2.3q0 0.2 0 0.4 0 0.2-0.2 0.4-0.1 0.2-0.3 0.3-0.2 0.1-0.5 0.1z"/>
		<path id="Layer" class="s40" d="m129.2 125.1c-12.8 0-21.1-9.6-21.2-9.8q-0.2-0.3-0.2-0.7 0-0.4 0.3-0.7 0.4-0.2 0.8-0.2 0.4 0.1 0.6 0.4c0.2 0.1 11.1 12.8 27.1 7.9q0.4-0.2 0.8 0 0.3 0.2 0.5 0.6 0.1 0.4-0.1 0.8-0.2 0.4-0.6 0.5-1 0.3-2 0.5-1 0.2-2 0.4-1 0.2-2 0.2-1 0.1-2 0.1z"/>
		<path id="Layer" class="s41" d="m108.3 39.5q-0.2 0-0.5-0.1-0.2 0-0.4 0-0.3-0.1-0.5-0.1-0.2-0.1-0.5-0.2c-4.2-1.4-5.7-7.4-5.7-7.6q-0.1-0.4 0.1-0.8 0.2-0.3 0.6-0.4 0.4-0.1 0.8 0.1 0.3 0.2 0.4 0.6c0 0.1 1.3 5.2 4.5 6.3q2.5 0.8 5.9-2 0.3-0.2 0.8-0.2 0.4 0.1 0.6 0.4 0.3 0.3 0.2 0.7 0 0.4-0.3 0.7-0.6 0.6-1.3 1-0.7 0.5-1.5 0.8-0.8 0.3-1.6 0.5-0.8 0.2-1.6 0.3z"/>
		<path id="Layer" class="s42" d="m103 49.3q0-0.1-0.1-0.1 0 0-0.1 0 0 0-0.1 0 0 0-0.1 0-0.2-0.1-0.3-0.3-0.1-0.1-0.2-0.3-0.1-0.2-0.1-0.4 0-0.2 0.1-0.4 0.5-1.1 0.9-2.4 0.4-1.2 0.7-2.4 0.3-1.2 0.4-2.5 0.2-1.3 0.3-2.5 0-0.2 0.1-0.4 0.1-0.2 0.2-0.3 0.2-0.2 0.4-0.2 0.1-0.1 0.3-0.1 0.2 0 0.4 0.1 0.2 0.1 0.3 0.2 0.2 0.2 0.2 0.4 0.1 0.1 0.1 0.3-0.1 1.4-0.3 2.8-0.2 1.3-0.5 2.7-0.3 1.3-0.7 2.6-0.4 1.3-1 2.6 0 0.1-0.1 0.2-0.1 0.1-0.2 0.2-0.2 0.1-0.3 0.1-0.1 0.1-0.3 0.1z"/>
		<path id="Layer" class="s43" d="m106.9 51.4q-0.3 0-0.5-0.2-0.2-0.1-0.4-0.3-0.1-0.2-0.1-0.5 0-0.2 0.1-0.5c0 0 1.8-3.6 2-11.3q0-0.2 0.1-0.4 0.1-0.2 0.2-0.3 0.2-0.1 0.4-0.2 0.1-0.1 0.3-0.1 0.2 0 0.4 0.1 0.2 0.1 0.3 0.2 0.2 0.2 0.2 0.4 0.1 0.2 0.1 0.4c-0.2 8.2-2.1 12-2.2 12.1q-0.1 0.2-0.2 0.3-0.1 0.1-0.2 0.1-0.1 0.1-0.2 0.1-0.2 0.1-0.3 0.1z"/>
		<path id="Layer" class="s44" d="m111.6 50.5q-0.2 0-0.4-0.1-0.3-0.2-0.4-0.4-0.1-0.2-0.2-0.5 0-0.2 0.2-0.5 0.5-1.3 0.9-2.8 0.4-1.4 0.6-2.9 0.2-1.5 0.2-3 0-1.5-0.2-2.9-0.1-0.4 0.2-0.8 0.2-0.3 0.7-0.3 0.4-0.1 0.7 0.2 0.3 0.2 0.4 0.6 0.2 1.7 0.2 3.3 0 1.6-0.2 3.3-0.2 1.6-0.7 3.2-0.4 1.6-1.1 3.1 0 0.1-0.1 0.2-0.1 0.1-0.2 0.2-0.2 0-0.3 0.1-0.1 0-0.3 0z"/>
		<path id="Layer" class="s45" d="m136 135c-16.6 0-27.2-5.6-33.2-10.2-6.5-5.1-9-10.1-9.1-10.3q-0.1-0.2 0-0.4 0-0.2 0.2-0.3 0.2-0.1 0.4 0 0.2 0 0.3 0.2c0.1 0.2 10.3 20 41.4 20q0.2 0 0.3 0.1 0.2 0.2 0.2 0.4 0 0.2-0.2 0.4-0.1 0.1-0.3 0.1z"/>
		<path id="Layer" class="s46" d="m96.4 82.5q-0.1 0-0.3-0.1-0.1 0-0.1-0.2-0.1-0.1-0.1-0.2 0-0.1 0.1-0.3c0.1-0.2 4.4-7 14.7-10.5q0.2-0.1 0.4 0 0.2 0.1 0.3 0.3 0 0.2-0.1 0.4-0.1 0.2-0.2 0.2c-10 3.4-14.2 10.1-14.3 10.2q0 0-0.1 0.1 0 0-0.1 0 0 0.1-0.1 0.1 0 0-0.1 0z"/>
		<path id="Layer" class="s47" d="m106.4 102.4q0.3 0.1 0.5 0.3 0.2 0.2 0.3 0.4 0.1 0.2 0.1 0.5 0.1 0.3 0 0.5l-0.9 2.9q-0.1 0.3-0.3 0.5-0.2 0.2-0.4 0.3-0.2 0.1-0.5 0.2-0.3 0-0.5-0.1-0.3-0.1-0.5-0.2-0.2-0.2-0.3-0.5-0.2-0.2-0.2-0.5 0-0.2 0.1-0.5l0.9-2.9q0.1-0.3 0.3-0.5 0.1-0.2 0.4-0.3 0.2-0.1 0.5-0.1 0.2-0.1 0.5 0z"/>
		<path id="Layer" class="s48" d="m145.7 114.9q0.3 0.1 0.5 0.2 0.2 0.2 0.3 0.4 0.1 0.3 0.2 0.5 0 0.3-0.1 0.6l-0.9 2.9q-0.1 0.2-0.3 0.4-0.1 0.2-0.4 0.4-0.2 0.1-0.5 0.1-0.3 0-0.5 0-0.3-0.1-0.5-0.3-0.2-0.2-0.3-0.4-0.1-0.2-0.2-0.5 0-0.3 0.1-0.5l0.9-2.9q0.1-0.3 0.3-0.5 0.1-0.2 0.4-0.3 0.2-0.2 0.5-0.2 0.3 0 0.5 0.1z"/>
		<path id="Layer" class="s49" d="m132.2 116.3q0.1 0.2 0.2 0.5 0.1 0.2 0.1 0.4 0.1 0.3 0.1 0.5-0.1 0.5-0.3 0.9-0.2 0.5-0.5 0.9-0.3 0.4-0.6 0.7-0.4 0.4-0.8 0.6-0.4 0.2-0.8 0.4-0.4 0.1-0.8 0.2-0.4 0.1-0.9 0.2-0.4 0-0.8 0-0.7 0-1.4-0.1-0.6-0.1-1.3-0.2-0.7-0.1-1.3-0.3-0.7-0.2-1.3-0.4c-4.8-1.5-6.8-4.3-6.8-6.5q0-0.4 0.1-0.7 0.1-0.3 0.3-0.6 0.2-0.3 0.5-0.5 0.3-0.2 0.6-0.3c5.3-1.4 13.1 1.8 15.3 4q0.2 0.1 0.4 0.3z"/>
		<path id="Layer" class="s50" d="m82 47.8q-0.2 0-0.4 0-0.2-0.1-0.3-0.3-0.2-0.1-0.3-0.3 0-0.2 0-0.4v-12.5q0-0.1 0-0.3 0-0.1 0.1-0.2 0-0.1 0.1-0.2 0.1-0.1 0.2-0.1l46.2-32.9q0.3-0.2 0.7-0.1 0.5 0 0.7 0.4 0.2 0.3 0.2 0.7-0.1 0.4-0.4 0.7l-45.8 32.5v12q0 0.2-0.1 0.4-0.1 0.2-0.2 0.3-0.2 0.2-0.4 0.3-0.1 0-0.3 0z"/>
		<path id="Layer" class="s51" d="m76.3 75.6q-0.1 0-0.1 0-0.1 0-0.2 0 0 0-0.1-0.1-0.1 0-0.1 0l-9.2-6.3q-0.1-0.1-0.2-0.2-0.1-0.1-0.2-0.2 0-0.1-0.1-0.2 0-0.1 0-0.2v-15.1q0-0.4 0.3-0.7 0.3-0.3 0.7-0.3 0.4 0 0.7 0.3 0.3 0.3 0.3 0.7v14.5l8.8 6q0.3 0.2 0.4 0.5 0.1 0.3 0 0.6-0.1 0.4-0.4 0.6-0.3 0.1-0.6 0.1z"/>
		<path id="Layer" class="s52" d="m40.5 178.8q-0.5 0-1-0.2-0.4-0.2-0.8-0.6-0.3-0.3-0.5-0.8-0.2-0.4-0.2-0.9v-74.5c0-0.6 0.3-1.3 0.7-1.7 0.5-0.5 1.1-0.8 1.8-0.8 0.7 0 1.3 0.3 1.8 0.8 0.4 0.4 0.7 1.1 0.7 1.7v74.5q0 0.5-0.2 0.9-0.2 0.5-0.5 0.8-0.4 0.4-0.9 0.6-0.4 0.2-0.9 0.2z"/>
		<path id="Layer" class="s53" d="m52.9 100.7q0.2 0.7 0.4 1.4 0.1 0.7 0.3 1.4 0.2 0.7 0.4 1.4 0.2 0.6 0.5 1.3l-10.5 10.2c-0.5 0.4-1.1 0.7-1.8 0.7-0.7 0-1.3-0.3-1.8-0.8-0.4-0.5-0.7-1.1-0.7-1.8 0-0.6 0.3-1.2 0.8-1.7zm17.5-12.2q0.2 0.5 0.2 1 0 0.5-0.2 0.9-0.2 0.5-0.6 0.8l-8.6 8.4c-0.7-2.9-0.7-5.1-0.4-6q0.2-0.5 0.4-1l5.2-5q0.3-0.3 0.8-0.5 0.4-0.2 0.9-0.2 0.5 0.1 1 0.3 0.5 0.2 0.8 0.5 0.3 0.4 0.5 0.8z"/>
		<path id="Layer" class="s54" d="m101.7 32.1q0.2 0.3 0.3 0.7 0.2 0.3 0.4 0.7 0.2 0.3 0.4 0.7 0.5 0.7 1 1.3-0.1 0.2-0.1 0.3c-7.8 5.6-21.3 15.3-23.2 16.9-0.1 1.8 0 6.6 0.1 10.7 0.1 12.4 0 14.9-0.6 16.1-0.9 1.8-9 10.3-13.8 15.3-0.5 0.5-1.1 0.7-1.8 0.8-0.6 0-1.3-0.3-1.7-0.7-0.5-0.5-0.8-1.1-0.8-1.8 0-0.7 0.2-1.3 0.7-1.8 5.6-5.7 11.7-12.3 12.9-13.9 0.2-1.8 0.1-9.1 0.1-14-0.2-11.1-0.1-12.1 0.4-13.1 0.2-0.5 6.7-5.6 25.4-19q0.1 0.4 0.3 0.8zm24.1-13.8q0.1 0.4 0 0.9-0.1 0.5-0.3 0.9-0.3 0.5-0.7 0.8c-3.5 2.4-7.5 5.3-11.6 8.2q-0.3-0.5-0.6-1-0.3-0.4-0.7-0.8-0.4-0.4-0.9-0.8-0.4-0.3-1-0.5 0-0.1-0.1-0.1-0.1-0.1-0.2-0.1-0.1 0-0.2-0.1-0.1 0-0.2 0c3.8-2.7 8-5.6 12.6-8.9q0.4-0.3 0.9-0.4 0.5-0.1 1-0.1 0.5 0.1 0.9 0.4 0.4 0.3 0.7 0.7 0.3 0.4 0.4 0.9z"/>
	</g>
</svg>